<svg xmlns="http://www.w3.org/2000/svg" viewBox="0 0 328.93 324.96"><defs><style>.cls-1{fill:#c1c1c1;}</style></defs><g id="Layer_2" data-name="Layer 2"><g id="Layer_6" data-name="Layer 6"><path class="cls-1" d="M271.46,322.88c-15.2,1-30.46-.95-45.66,1-4.51.57-8.23-1.61-10.43-5.61a26,26,0,0,1-2.82-7.49C208.8,291.39,202,272.85,196.3,254c-5.17-17-15-31.86-24.87-46.44-5.53-8.13-10.87-16.4-17.52-23.8a95.27,95.27,0,0,0-17.25-15.54c-7.16-4.86-14.23-9.77-20.64-15.71s-14.33-9.62-22.36-13S77.59,133,70,128.9c-13.46-7.2-28-10.18-42.85-12.13-5.33-.7-10.68-1.28-16-2.25-6.33-1.16-9.94-5-9.15-11.21C2.94,96,1.45,89,.79,81.93-1,62.85.75,43.76.79,24.67c0-3-.06-6,0-9C1,6.1,5.65,1.58,15.26,1.57,28.82,1.56,42,4.27,55,7.67,74.35,12.74,93.9,17,113.22,22.1c26.55,7,51.14,18.2,71.63,37.18,4.14,3.83,9.09,6.78,13.53,10.31,22.86,18.14,42.12,39.66,59.64,62.89a402.94,402.94,0,0,1,26.21,38.44c8.42,14.3,14.42,29.46,19.9,44.94,5.37,15.16,12.63,29.69,15.24,45.77,2.58,15.91,5.59,31.79,5.81,48,.13,10-3.23,13.56-13.36,13.69C298.37,323.47,284.93,322,271.46,322.88Z"/><path class="cls-1" d="M31.78,322.77c-5.08,0-10.16,0-15.24,0-8.81.09-15.82-5.43-14.26-15.11.88-5.44-.9-11.26-.88-16.91.05-19.09,0-38.18.71-57.24.66-17.34-.43-34.59-1.12-51.87A184.72,184.72,0,0,1,1.15,162c.69-10.41,7.06-15.3,17-12.57,6.69,1.84,13.45.46,20.28,2.3,9.67,2.62,18.46,6.84,27,11.52,11.77,6.44,23.1,13.68,35,19.83,9.21,4.74,15.46,13,23.13,19.62,4.95,4.25,9.21,9.34,13.55,14.26,19.47,22.06,30,48.39,36.4,76.68.86,3.79,2,7.51,2.78,11.31,1.68,8.41-.86,13-8.93,16-5.64,2.11-11.6,2.56-17.55,3.25-10.46,1.2-20.86-.12-31.27-.24-12.56-.15-25.08.67-37.62.95a190.22,190.22,0,0,1-31.27-1.51c-5.84-.83-11.91-.15-17.87-.15Z"/><path class="cls-1" d="M328.88,151a101.53,101.53,0,0,1-1.15,17c-.37,2.89-1.05,5.48-4.45,5.69s-5.91-1.45-6.63-4.8c-2.84-13.16-10.27-24.07-17.38-35.06A232.19,232.19,0,0,0,283.82,113c-10.41-12.7-19.08-26.68-30-39.06-21.23-24.14-46.1-43.12-75.4-56.33-5.16-2.32-10.33-4.63-15.48-7-2.81-1.28-5.71-2.9-4.86-6.53s4.23-3.8,7.25-3.94c6.53-.3,13.06.49,19.56.71C196,1.2,207,1.19,218,.57c22.43-1.26,44.78-.16,67.17.69,8.93.35,17.89-.41,26.84-.43,10.9,0,16.29,5.35,15.17,16-3.21,30.42-2.12,60.78-.26,91.22C327.8,122.36,328.13,136.7,328.88,151Z"/></g></g></svg>