<svg xmlns="http://www.w3.org/2000/svg" viewBox="0 0 1321.41 324.96"><defs><style>.cls-1{fill:#c1c1c1;}</style></defs><g id="Layer_2" data-name="Layer 2"><g id="Layer_6" data-name="Layer 6"><path class="cls-1" d="M271.46,322.88c-15.2,1-30.46-.95-45.66,1-4.51.57-8.23-1.61-10.43-5.61a26,26,0,0,1-2.82-7.49C208.8,291.39,202,272.85,196.3,254c-5.17-17-15-31.86-24.87-46.44-5.53-8.13-10.87-16.4-17.52-23.8a95.27,95.27,0,0,0-17.25-15.54c-7.16-4.86-14.23-9.77-20.64-15.71s-14.33-9.62-22.36-13S77.59,133,70,128.9c-13.46-7.2-28-10.18-42.85-12.13-5.33-.7-10.68-1.28-16-2.25-6.33-1.16-9.94-5-9.15-11.21C2.94,96,1.45,89,.79,81.93-1,62.85.75,43.76.79,24.67c0-3-.06-6,0-9C1,6.1,5.65,1.58,15.26,1.57,28.82,1.56,42,4.27,55,7.67,74.35,12.74,93.9,17,113.22,22.1c26.55,7,51.14,18.2,71.63,37.18,4.14,3.83,9.09,6.78,13.53,10.31,22.86,18.14,42.12,39.66,59.64,62.89a402.94,402.94,0,0,1,26.21,38.44c8.42,14.3,14.42,29.46,19.9,44.94,5.37,15.16,12.63,29.69,15.24,45.77,2.58,15.91,5.59,31.79,5.81,48,.13,10-3.23,13.56-13.36,13.69C298.37,323.47,284.93,322,271.46,322.88Z"/><path class="cls-1" d="M31.78,322.77c-5.08,0-10.16,0-15.24,0-8.81.09-15.82-5.43-14.26-15.11.88-5.44-.9-11.26-.88-16.91.05-19.09,0-38.18.71-57.24.66-17.34-.43-34.59-1.12-51.87A184.72,184.72,0,0,1,1.15,162c.69-10.41,7.06-15.3,17-12.57,6.69,1.84,13.45.46,20.28,2.3,9.67,2.62,18.46,6.84,27,11.52,11.77,6.44,23.1,13.68,35,19.83,9.21,4.74,15.46,13,23.13,19.62,4.95,4.25,9.21,9.34,13.55,14.26,19.47,22.06,30,48.39,36.4,76.68.86,3.79,2,7.51,2.78,11.31,1.68,8.41-.86,13-8.93,16-5.64,2.11-11.6,2.56-17.55,3.25-10.46,1.2-20.86-.12-31.27-.24-12.56-.15-25.08.67-37.62.95a190.22,190.22,0,0,1-31.27-1.51c-5.84-.83-11.91-.15-17.87-.15Z"/><path class="cls-1" d="M328.88,151a101.53,101.53,0,0,1-1.15,17c-.37,2.89-1.05,5.48-4.45,5.69s-5.91-1.45-6.63-4.8c-2.84-13.16-10.27-24.07-17.38-35.06A232.19,232.19,0,0,0,283.82,113c-10.41-12.7-19.08-26.68-30-39.06-21.23-24.14-46.1-43.12-75.4-56.33-5.16-2.32-10.33-4.63-15.48-7-2.81-1.28-5.71-2.9-4.86-6.53s4.23-3.8,7.25-3.94c6.53-.3,13.06.49,19.56.71C196,1.2,207,1.19,218,.57c22.43-1.26,44.78-.16,67.17.69,8.93.35,17.89-.41,26.84-.43,10.9,0,16.29,5.35,15.17,16-3.21,30.42-2.12,60.78-.26,91.22C327.8,122.36,328.13,136.7,328.88,151Z"/><path class="cls-1" d="M733.85,147.84c-1.9,14.14-.26,26.59-.51,39-.23,12.25-.4,24.5-.72,36.74-.2,7.58-4.26,11.87-12,13.11s-14.06-2.22-16.43-9.11a37.24,37.24,0,0,1-1.61-13.3c.8-25.12-1.62-50.15-2.13-75.24-.28-13.46.39-26.89,1.15-40.31.59-10.44,4.77-13.21,14.93-13.28,14-.1,23.22,4.16,30.6,17.75,12.22,22.46,27.7,43.16,41.86,64.56,1.3,2,2.54,4.07,4.76,5.28,2.81-1,1.79-3.51,1.75-5.33-.36-19.12-.88-38.23-1.29-57.35a54.5,54.5,0,0,1,.37-9.82c1.47-9.1,7.35-13.43,16.52-12.37a67.94,67.94,0,0,1,7,1.41c6.61,1.49,10.12,5,10.06,11.75-.22,24.8,3.42,49.55,1.66,74.31-1.11,15.51-.56,31-1.75,46.5-.65,8.32-2.92,10.76-11.16,12.65-4,.93-8,2.12-12.35,1.56-8.42-1.11-14.61-4.15-19.28-12.3-10.37-18.1-21.88-35.57-33.39-53C746.8,163.38,740.6,156.45,733.85,147.84Z"/><path class="cls-1" d="M463.81,89.49c10.74-.31,21.45-.31,32.12,1.33,18.33,2.81,33.85,11.16,44,26.37,13.76,20.56,20.13,42.9,9.82,67.54-7,16.72-16.77,30.83-32.64,40.18-8.12,4.78-17.13,7-26.27,8.15-19.26,2.52-38.71,1.06-58.06,2-6,.29-9.28-2.55-11.19-8.38a40.8,40.8,0,0,1-1.73-13.25c.21-19.67.44-39.34.52-59,.05-11-2.23-21.94-1.79-33,.22-5.66.1-11.35.62-17,.92-10.06,3.66-12.82,13.37-15.09a45.67,45.67,0,0,1,14.23-.69C452.48,89.1,458.15,89.22,463.81,89.49ZM452.6,162.7h.53c.48,11.63,1.38,23.26,1.26,34.88-.05,5.14,2.33,6.31,6.24,6.4,10.14.24,20.4,1,30.32-1.41,6.31-1.52,13-3.49,17.44-8.6,15.67-17.87,16.57-42.77,1.15-61.37-3.65-4.41-8-8.08-13.63-9.82a106.39,106.39,0,0,0-32.6-5c-8,0-10.53,2.54-10.66,10.89C452.47,140,452.6,151.36,452.6,162.7Z"/><path class="cls-1" d="M928.63,204c20.58.32,40,1.46,59.41.5,9.79-.48,15.25,4.33,15.71,13.09.56,10.65-4.43,18-13.73,18.69a120.37,120.37,0,0,1-22.38-.27,90.68,90.68,0,0,0-16.95-.48c-15,1.16-29.85-.26-44.7-1.89-8.87-1-12.55-5.15-13.07-14.07a33.32,33.32,0,0,1,.05-5.38c3.1-28.31,1.21-56.71,1.46-85.07.08-9.83,1.38-19.56,1.3-29.39-.05-6.13,4.95-10,12.46-10.2,9-.27,18-.57,26.89,0,16.5,1.13,32.82-1.42,49.24-1.61.3,0,.59-.09.89-.12,18.39-2,21.45,7.43,18.71,23.22-1.08,6.23-6,8.79-13.65,8.86-17.93.17-35.85,1-53.78.56-6.38-.16-6.39.15-6.28,6.34.09,5.08.57,10.18.18,15.22-.37,4.78,1.84,5.57,5.79,5.29,13.7-1,27.42-1.7,41.12-2.74a37.38,37.38,0,0,1,8.91.12c7.85,1.27,10.51,4.59,11.19,12.5,1.47,17.2-5,20.3-19.49,20.09-13.46-.19-26.9-.12-40.35.44-7,.29-7.14.35-7.77,7.64C929.28,191.29,929,197.22,928.63,204Z"/><path class="cls-1" d="M669.26,233.35c-1,.11-2.51.33-4,.43-5.8.4-9.89-2.06-11.73-7.59-1.41-4.22-2.48-8.57-3.55-12.9-.66-2.67-1.85-4.15-4.91-3.88-15.8,1.37-31.63-.36-47.46.32-4.86.21-8.07,1.31-8.82,6.48a4.75,4.75,0,0,1-.34.82c-6.39,17.69-7.91,18.73-26.46,18.07-8-.28-12-5.46-10-13.15a30,30,0,0,1,2.19-5.86c7.59-15.29,11.43-31.93,17.38-47.82q6.72-18,13.1-36c3.94-11.24,7.59-22.59,11.4-33.88,2.71-8,4.52-9.08,12.83-9.54a157.08,157.08,0,0,1,21.25.24c7.66.6,11.21,4,13.69,10.45,5,13.06,10.12,26.1,15.58,39,6.52,15.36,12.62,30.73,16.91,47,2.77,10.52,5.91,21.14,9.49,31.53,4,11.62-.14,16.87-12.52,16.56C672.1,233.54,670.91,233.44,669.26,233.35ZM601.1,179.18h36.67c-7.43-17.13-10.13-35.51-18.73-52.47C612.84,144.3,605.8,160.74,601.1,179.18Z"/><path class="cls-1" d="M1206.59,204.41c18.88-2.11,36.75,0,54.64-.18,10.38-.12,14,3.36,14.1,13.7a57.89,57.89,0,0,1-.3,8.94c-.94,6.3-6.08,10.3-12.07,9.16-13-2.49-26.14-1.29-39.21-1.58-12.21-.28-24.44.29-36.66.33-5.91,0-9.76-3.26-11.17-9.58-1.62-7.31-2.7-14.86-2.11-22.23,1.32-16.37,1.65-32.76,2.07-49.15.19-7.14-.21-14.32-.73-21.45a117.75,117.75,0,0,1,0-20.57c.3-3,.62-5.86-.25-8.83a10.92,10.92,0,0,1,.37-7c2.63-6.87,11-9.74,21.78-7.51,7.7,1.59,12,6.23,11.44,13.59-.81,11.91-2,23.84-1.27,35.76,1,18.22,0,36.38-.64,54.56C1206.48,195.88,1206.59,199.44,1206.59,204.41Z"/><path class="cls-1" d="M1017.8,164.56c0-18.19-.06-36.39.07-54.58a50.18,50.18,0,0,0-.71-7.94c-1.08-7,2.82-12.36,9.85-13.5a37.1,37.1,0,0,1,9.82-.19c11.17,1.19,14.39,5,13.68,16.36-1.49,23.85-2.45,47.69-.31,71.57.61,6.81-1.65,13.62-.52,20.53,1.23,7.54,1.09,7.66,9,7.71,14.64.09,29.33.8,43.91-.14,14-.91,19.09,11.08,15.18,21.42-2.41,6.39-7.1,8.53-13.14,8.82-8.65.42-17.32.76-26,.74-15.83-.05-31.66-.18-47.48-.68-10.39-.34-13.37-3.31-13.35-13.69C1017.84,202.17,1016.25,183.38,1017.8,164.56Z"/><path class="cls-1" d="M879,158.12c1.54,19.66,1.16,37.55,1.22,55.44a38.94,38.94,0,0,1-1.53,12.37c-2.24,6.82-6.09,9.84-13.05,10.08-.89,0-1.78-.13-2.68-.17-14.23-.53-18.93-4.83-18.44-19,1.09-31.27-.06-62.52.11-93.78a175.66,175.66,0,0,1,1.58-21.36c1.14-8.89,7.29-13.71,16.16-13.1A38,38,0,0,1,870.29,90c6,1.75,8.74,5.71,8.73,11.86C879,121.2,879,140.56,879,158.12Z"/><path class="cls-1" d="M1321.1,219.2l0,.05v0c.13,1.36.22,3,.29,4.77a10.43,10.43,0,0,1-.68,4.53,6.51,6.51,0,0,1-3.3,4.59,15.2,15.2,0,0,1-6.14,1.81l-2.57.25a31.16,31.16,0,0,1-9.42-.29,23.8,23.8,0,0,1-8.13-3.48,7.18,7.18,0,0,1-2.6-5.07,25.71,25.71,0,0,1,.09-7.37l0-.05v0c-.14-1.35-.25-2.94-.31-4.76a10.49,10.49,0,0,1,.7-4.54,6.54,6.54,0,0,1,3.29-4.59,15.4,15.4,0,0,1,6.14-1.8L1301,203a31.16,31.16,0,0,1,9.42.29,24,24,0,0,1,8.13,3.47,7.21,7.21,0,0,1,2.58,5.08A24.66,24.66,0,0,1,1321.1,219.2Z"/></g></g></svg>