<svg xmlns="http://www.w3.org/2000/svg" viewBox="0 0 2258.75 325.02"><defs><style>.cls-1{fill:#333;}.cls-2{fill:#ff8b00;}</style></defs><g id="Layer_2" data-name="Layer 2"><g id="Final_Group" data-name="Final Group"><g id="Layer_2-2" data-name="Layer 2"><g id="Layer_6" data-name="Layer 6"><g id="_0_Drawn_Combination" data-name=" 0 Drawn Combination"><path class="cls-1" d="M733.86,147.84c-1.9,14.14-.26,26.59-.51,39-.23,12.25-.4,24.5-.72,36.74-.2,7.58-4.26,11.87-12,13.11s-14.06-2.22-16.43-9.11a37.43,37.43,0,0,1-1.61-13.3c.8-25.12-1.62-50.15-2.13-75.24-.28-13.46.39-26.89,1.15-40.31.59-10.44,4.77-13.21,14.93-13.28,14-.1,23.22,4.16,30.6,17.75,12.22,22.46,27.7,43.16,41.86,64.56,1.3,2,2.54,4.07,4.76,5.28,2.81-1,1.79-3.51,1.75-5.33-.36-19.12-.88-38.23-1.29-57.35a55.58,55.58,0,0,1,.37-9.82c1.47-9.1,7.35-13.43,16.52-12.37a68.82,68.82,0,0,1,7,1.41c6.61,1.49,10.12,5,10.06,11.75-.22,24.8,3.42,49.55,1.66,74.31-1.11,15.51-.56,31-1.75,46.5-.65,8.32-2.92,10.76-11.16,12.65-4,.93-8,2.12-12.35,1.56-8.42-1.11-14.61-4.15-19.28-12.3-10.37-18.1-21.88-35.57-33.39-53C746.81,163.38,740.61,156.45,733.86,147.84Z"/><path class="cls-1" d="M1528.11,156.92c4.14,2.33,8,4.12,11.37,6.48a25.84,25.84,0,0,1,10.89,15.83,89.2,89.2,0,0,1,2.6,20.38c0,9.65-5.72,16.66-12.77,22.57-8.32,7-18.3,9.66-28.84,10.91-14.84,1.77-29.75,2.35-44.64,3.27-7.23.44-14.18-1.53-21.32-1.89-5.53-.27-9-5.42-9.34-12.47-.53-10.42-1-20.87-.77-31.28.51-20.91-2.29-41.7-2-62.59.14-9.24.35-18.49,1-27.71.54-8.1,5.16-12.12,13.23-12.78a296.25,296.25,0,0,1,52.69.45c7.07.68,14.64,1.42,20.88,4.42,10,4.79,16.48,13.73,19.4,24.49C1544.69,132.55,1541.36,142.52,1528.11,156.92Zm-39.37,47.94v.23c4.47.23,9,.65,13.42.65,10.88,0,18.56-12.32,14-22-3.37-7.11-9.17-10-16.63-9.76-9,.29-17.9,1.07-26.86,1.37-3.1.11-4.18,1.27-4.15,4.26.07,6-.26,11.95-.09,17.91.2,7,.36,7.11,7.78,7.34C1480.37,205,1484.56,204.86,1488.74,204.86Zm-4.15-86.34h-12.5c-1.87,0-4.1.38-3.81,2.66,1,7.45-.75,14.84-.19,22.28.26,3.38,1.94,3.83,4.65,3.57,7.7-.76,15.43-1.21,23.09-2.28,7-1,11.51-6.15,12.25-13.06.78-7.33-2.74-12.19-10.12-13C1493.56,118.11,1489,118.52,1484.59,118.52Z"/><path class="cls-1" d="M1598.31,196v25.72c.06,8.24-3.08,12.15-11.13,13.33a42.6,42.6,0,0,1-7.14.43c-10.21-.26-14.62-4.91-14.63-15q-.08-56.82-.19-113.64a47.52,47.52,0,0,1,.69-8.91c1-5.08,4-9.35,9.21-9.75,20.77-1.61,41.6-5,62.32.6,12,3.22,23.08,7.51,31,18.07,16.85,22.52,8.56,56.84-10.41,68.63-5.54,3.45-10.46,7.88-17.47,10.29,5.85,6.82,12.2,12.09,18.55,17.33a74.36,74.36,0,0,1,13,13.53c2.84,3.87,4,8,1.48,12.53-2.25,4-5.85,5.77-10.37,5.8-3.29,0-6.59-.14-9.86.11-9,.7-16-2.5-21.9-9.58-9.33-11.25-21.42-19.71-31.3-30.45Zm-.09-56.84c0,5.07.12,10.14,0,15.21-.09,3.08,1.26,4,4.18,4.34,9.62,1,19.07-.65,28.56-1.42,5.38-.43,8.56-3.77,9.81-9,2.18-9-.7-17-4.91-24.82-.87-1.61-2.3-1.7-3.77-1.84-9.21-.93-18.36-2.35-27.69-1.9-3.68.18-5.46,1-5.18,5.07"/><path class="cls-1" d="M271.47,322.88c-15.2,1-30.46-.95-45.66,1-4.51.57-8.23-1.61-10.43-5.61a26.1,26.1,0,0,1-2.82-7.49C208.81,291.39,202,272.85,196.31,254c-5.17-17-15-31.86-24.87-46.44-5.53-8.13-10.87-16.4-17.52-23.8a95.08,95.08,0,0,0-17.25-15.54c-7.16-4.86-14.23-9.77-20.64-15.71s-14.33-9.62-22.36-13S77.6,133,70,128.9c-13.46-7.2-28-10.18-42.85-12.13-5.33-.7-10.68-1.28-16-2.25-6.33-1.16-9.94-5-9.15-11.21C3,96,1.46,89,.8,81.93-1,62.85.76,43.76.8,24.67c0-3-.06-6,0-9C1,6.1,5.66,1.58,15.27,1.57,28.83,1.56,42,4.27,55,7.67,74.36,12.74,93.91,17,113.23,22.1c26.55,7,51.14,18.2,71.63,37.18,4.14,3.83,9.09,6.78,13.53,10.31,22.86,18.14,42.12,39.66,59.64,62.89a401.18,401.18,0,0,1,26.21,38.44c8.42,14.3,14.42,29.46,19.9,44.94,5.37,15.16,12.63,29.69,15.24,45.77,2.58,15.91,5.59,31.79,5.81,48,.13,10-3.23,13.56-13.36,13.69C298.38,323.47,284.94,322,271.47,322.88Z"/><path class="cls-2" d="M31.79,322.77H16.55c-8.81.09-15.82-5.43-14.26-15.11.88-5.44-.9-11.26-.88-16.91.05-19.09,0-38.18.71-57.24.66-17.34-.43-34.59-1.12-51.87A186.49,186.49,0,0,1,1.16,162c.69-10.41,7.06-15.3,17-12.57,6.69,1.84,13.45.46,20.28,2.3,9.67,2.62,18.46,6.84,27,11.52,11.77,6.44,23.1,13.68,35,19.83,9.21,4.74,15.46,13,23.13,19.62,5,4.25,9.21,9.34,13.55,14.26,19.47,22.06,30,48.39,36.4,76.68.86,3.79,2,7.51,2.78,11.31,1.68,8.41-.86,13-8.93,16-5.64,2.11-11.6,2.56-17.55,3.25-10.46,1.2-20.86-.12-31.27-.24-12.56-.15-25.08.67-37.62,1a190.11,190.11,0,0,1-31.27-1.51c-5.84-.83-11.91-.15-17.87-.15Z"/><path class="cls-2" d="M328.89,151a100.72,100.72,0,0,1-1.15,17c-.37,2.89-1.05,5.48-4.45,5.69s-5.91-1.45-6.63-4.8c-2.84-13.16-10.27-24.07-17.38-35.06A229,229,0,0,0,283.83,113c-10.41-12.7-19.08-26.68-30-39.06-21.23-24.14-46.1-43.12-75.4-56.33-5.16-2.32-10.33-4.63-15.48-7-2.81-1.28-5.71-2.9-4.86-6.53s4.23-3.8,7.25-3.94c6.53-.3,13.06.49,19.56.71C196,1.2,207,1.19,218,.57c22.43-1.26,44.78-.16,67.17.69,8.93.35,17.89-.41,26.84-.43,10.9,0,16.29,5.35,15.17,16-3.21,30.42-2.12,60.78-.26,91.22C327.81,122.36,328.14,136.7,328.89,151Z"/><path class="cls-1" d="M1840.52,137.22a280.55,280.55,0,0,0,.51-32.29c-.43-9.61,3.67-14.77,13.44-15.21,11.91-.55,23.87-.28,35.8,0,8,.17,16.09-.12,24.15.78,22,2.46,38.3,12.91,49.34,32.46,7.15,12.66,9.47,25.81,10.6,40.06,1,12.26-3.15,22.72-6.51,33.69a17.14,17.14,0,0,1-3.17,6.36c-9.35,10.53-19.58,19.87-33.16,24.88-22.41,8.25-45.74,7.41-69,7.37-2.09,0-4.17-.16-6.25-.19-8.12-.12-12-3.29-13.54-11.24a16,16,0,0,1-.31-2.67C1841.77,192.87,1841.13,164.55,1840.52,137.22Zm57,67.35c4.49-.6,9.52-.41,13.9-2,10.37-3.79,20.07-8.37,25.56-19.38,6.31-12.64,6.89-24.75,1.79-37.87-5-12.87-14.28-20-27.09-23.42-11.6-3.13-23.16.64-34.75.1-3.67-.17-3.27,2.68-3.18,5,.73,20.28.6,40.57.24,60.86-.06,3.58.42,7.15.46,10.73,0,2.8.76,4.44,4,4.4a97,97,0,0,1,19,1.58Z"/><path class="cls-1" d="M463.82,89.49c10.74-.31,21.45-.31,32.12,1.33,18.33,2.81,33.85,11.16,44,26.37,13.76,20.56,20.13,42.9,9.82,67.54-7,16.72-16.77,30.83-32.64,40.18-8.12,4.78-17.13,7-26.27,8.15-19.26,2.52-38.71,1.06-58.06,2-6,.29-9.28-2.55-11.19-8.38a41,41,0,0,1-1.73-13.25c.21-19.67.44-39.34.52-59,.05-11-2.23-21.94-1.79-33,.22-5.66.1-11.35.62-17,.92-10.06,3.66-12.82,13.37-15.09a45.64,45.64,0,0,1,14.23-.69C452.49,89.1,458.16,89.22,463.82,89.49ZM452.61,162.7h.53c.48,11.63,1.38,23.26,1.26,34.88,0,5.14,2.33,6.31,6.24,6.4,10.14.24,20.4,1,30.32-1.41,6.31-1.52,13-3.49,17.44-8.6,15.67-17.87,16.57-42.77,1.15-61.37-3.65-4.41-8-8.08-13.63-9.82a106.32,106.32,0,0,0-32.6-5c-8,0-10.53,2.54-10.66,10.89C452.48,140,452.61,151.36,452.61,162.7Z"/><path class="cls-1" d="M2221.79,185.08c6.1,9.93,14.58,18.17,23.29,26.23,2.41,2.23,5,4.36,6.87,7,5.37,7.83.76,17.28-8.69,17.22-10.76-.08-20.84-1-28.86-10.88-9.76-12-21.49-22.4-32.39-33.46-.34-.34-1-.41-2.21-.91a66.35,66.35,0,0,0-1,14c.35,6,.56,11.94.52,17.9-.05,7.52-2.76,10.66-9.94,12.87-5.4,1.67-10.69.55-15.9-.47-3-.6-5.07-3.15-6.05-6.13a21.6,21.6,0,0,1-1.54-7c.26-13.73-1.65-27.42-.53-41.19,1.57-19.38-.69-38.79-.09-58.19.2-6.57-.14-13.16.4-19.7.93-11.34,5.9-14.68,17.06-13.57,13.39,1.33,26.87.75,40.32.62,6.56-.06,13.1-.26,19.6,1.39,26.43,6.73,39.25,25.76,35.43,52.68-1.21,8.59-3,17.55-9.44,23.68-6.86,6.51-14.4,12.62-23.73,15.69C2223.86,183.3,2222.48,183.11,2221.79,185.08Zm-41.36-26c7.44,0,15.14.4,22.78-.11,8.16-.55,14.5-4.58,18.9-11.74,4.49-7.31,2.23-17.31-5.25-21.46-10.37-5.75-21.44-6.41-32.92-4.62-3.32.52-3.53,2.47-3.52,5,0,10.69,0,21.38,0,32.92Z"/><path class="cls-1" d="M928.64,204c20.58.32,40,1.46,59.41.5,9.79-.48,15.25,4.33,15.71,13.09.56,10.65-4.43,18-13.73,18.69a119.53,119.53,0,0,1-22.38-.27,90.56,90.56,0,0,0-16.95-.48c-15,1.16-29.85-.26-44.7-1.89-8.87-1-12.55-5.15-13.07-14.07a34.51,34.51,0,0,1,.05-5.38c3.1-28.31,1.21-56.71,1.46-85.07.08-9.83,1.38-19.56,1.3-29.39,0-6.13,5-10,12.46-10.2,9-.27,18-.57,26.89,0,16.5,1.13,32.82-1.42,49.24-1.61.3,0,.59-.09.89-.12,18.39-2,21.45,7.43,18.71,23.22-1.08,6.23-6,8.79-13.65,8.86-17.93.17-35.85,1-53.78.56-6.38-.16-6.39.15-6.28,6.34.09,5.08.57,10.18.18,15.22-.37,4.78,1.84,5.57,5.79,5.29,13.7-1,27.42-1.7,41.12-2.74a37.4,37.4,0,0,1,8.91.12c7.85,1.27,10.51,4.59,11.19,12.5,1.47,17.2-5,20.3-19.49,20.09-13.46-.19-26.9-.12-40.35.44-7,.29-7.14.35-7.77,7.64C929.29,191.29,929,197.22,928.64,204Z"/><path class="cls-1" d="M2062.88,233.07a65.86,65.86,0,0,1-38.23-7.71c-11.85-6.53-22.31-15.11-28.81-27.43-13.16-24.9-15.23-50.61-.18-74.89,10.19-16.44,25.57-27.21,45.53-32.2,20.19-5,38-.16,55.45,8,23.12,10.77,35.09,29.76,36.21,55.26.8,18.12-.82,36-11.42,51.45-12.28,17.95-29.6,27.21-51.5,27.55C2067.84,233.1,2065.74,233.07,2062.88,233.07Zm36.58-68.65a47.54,47.54,0,0,0,0-7.16c-1.26-8.55-2.37-17.62-8.13-24.19-9-10.28-20.6-15.76-34.92-14.56-11,.93-19.81,5.08-26.62,14-13.23,17.36-11.78,35.54-3.49,54a19.6,19.6,0,0,0,11.59,10.68c4.5,1.56,8.92,3.55,13.54,4.56,19,4.25,51.58-8.47,48-37.33Z"/><path class="cls-1" d="M669.27,233.35c-1,.11-2.51.33-4,.43-5.8.4-9.89-2.06-11.73-7.59-1.41-4.22-2.48-8.57-3.55-12.9-.66-2.67-1.85-4.15-4.91-3.88-15.8,1.37-31.63-.36-47.46.32-4.86.21-8.07,1.31-8.82,6.48a4.18,4.18,0,0,1-.34.82c-6.39,17.69-7.91,18.73-26.46,18.07-8-.28-12-5.46-10-13.15a30.62,30.62,0,0,1,2.19-5.86c7.59-15.29,11.43-31.93,17.38-47.82q6.72-18,13.1-36c3.94-11.24,7.59-22.59,11.4-33.88,2.71-8,4.52-9.08,12.83-9.54a157,157,0,0,1,21.25.24c7.66.6,11.21,4,13.69,10.45,5,13.06,10.12,26.1,15.58,39,6.52,15.36,12.62,30.73,16.91,47,2.77,10.52,5.91,21.14,9.49,31.53,4,11.62-.14,16.87-12.52,16.56C672.11,233.54,670.92,233.44,669.27,233.35Zm-68.16-54.17h36.67c-7.43-17.13-10.13-35.51-18.73-52.47C612.85,144.3,605.81,160.74,601.11,179.18Z"/><path class="cls-1" d="M1352.73,88.61h4.46c20.37.14,18.24.63,23.5,17.68,8.38,27.2,20.11,53,30.66,79.25a276,276,0,0,1,10.6,33.23c2.75,10.5-1.85,15.74-12.88,16.19h-.9c-17.14.44-18-.2-23-16.79-2-6.63-2-6.78-9.24-6.68q-20.64.28-41.21-1.34c-9.94-.78-14.55,2.9-15,12.76-.27,6-1.15,11-7.35,12.72-7.23,2.06-14.41,1.07-20.27-3.81-4.41-3.68-4.25-9-2.6-14.13,5.23-16.13,10.31-32.29,16.13-48.25q8.1-22.27,16.81-44.28c3.3-8.33,4.11-17.37,7.76-25.64,3.79-8.61,5.66-10.2,15.38-10.4C1348.56,89.11,1351.53,88.71,1352.73,88.61Zm19.67,90.88c-7.3-18.46-10.1-37.08-20.46-55-6,19.49-11.53,37.3-17.36,56.18,13-2.46,24.88,1.22,37.82-1.18Z"/><path class="cls-1" d="M1813.15,235c-14.39-.52-15.45-1.47-20.49-13.95-5.52-13.66-3.2-12.06-18.68-11.31-11.91.58-23.9-.14-35.85-.27-7.76-.09-7.75-.08-10.48,7.31A27.71,27.71,0,0,0,1726,221c-1.89,10.5-8.79,13.92-18.68,14-8.74.06-14.1-5.13-12.74-14.21a106.43,106.43,0,0,1,5.15-20.81c5.45-14.81,10.23-29.86,16.45-44.42,5-11.77,8.91-24.06,12.72-36.3,2.32-7.44,5.37-14.55,8.3-21.72,2.39-5.84,6.52-8.65,13.26-8.4,7.1.27,14.2-1.07,21.39.26,6,1.1,9.9,3.69,11.09,9.88,1.35,7.08,5.24,13.22,7.63,20,5.57,15.72,10.4,31.69,16.73,47.17,7,17.1,12.68,34.73,18.89,52.14,1.81,5.09,1.86,10-2.23,14.17C1820.61,236.17,1816.35,235.42,1813.15,235Zm-55.89-105.56c-5.51,18-10.41,33.93-15.5,50.55,12.13-.21,23.48,2,35.71.08-6.55-16.66-11.14-33.45-20.21-50.59Z"/><path class="cls-1" d="M1206.6,204.41c18.88-2.11,36.75,0,54.64-.18,10.38-.12,14,3.36,14.1,13.7a56.83,56.83,0,0,1-.3,8.94c-.94,6.3-6.08,10.3-12.07,9.16-13-2.49-26.14-1.29-39.21-1.58-12.21-.28-24.44.29-36.66.33-5.91,0-9.76-3.26-11.17-9.58-1.62-7.31-2.7-14.86-2.11-22.23,1.32-16.37,1.65-32.76,2.07-49.15.19-7.14-.21-14.32-.73-21.45a117.76,117.76,0,0,1,0-20.57c.3-3,.62-5.86-.25-8.83a11,11,0,0,1,.37-7c2.63-6.87,11-9.74,21.78-7.51,7.7,1.59,12,6.23,11.44,13.59-.81,11.91-2,23.84-1.27,35.76,1,18.22,0,36.38-.64,54.56C1206.49,195.88,1206.6,199.44,1206.6,204.41Z"/><path class="cls-1" d="M1017.81,164.56c0-18.19-.06-36.39.07-54.58a49.13,49.13,0,0,0-.71-7.94c-1.08-7,2.82-12.36,9.85-13.5a37.13,37.13,0,0,1,9.82-.19c11.17,1.19,14.39,5,13.68,16.36-1.49,23.85-2.45,47.69-.31,71.57.61,6.81-1.65,13.62-.52,20.53,1.23,7.54,1.09,7.66,9,7.71,14.64.09,29.33.8,43.91-.14,14-.91,19.09,11.08,15.18,21.42-2.41,6.39-7.1,8.53-13.14,8.82-8.65.42-17.32.76-26,.74-15.83-.05-31.66-.18-47.48-.68-10.39-.34-13.37-3.31-13.35-13.69C1017.85,202.17,1016.26,183.38,1017.81,164.56Z"/><path class="cls-1" d="M879,158.12c1.54,19.66,1.16,37.55,1.22,55.44a38.59,38.59,0,0,1-1.53,12.37c-2.24,6.82-6.09,9.84-13.05,10.08-.89,0-1.78-.13-2.68-.17-14.23-.53-18.93-4.83-18.44-19,1.09-31.27-.06-62.52.11-93.78a177.39,177.39,0,0,1,1.58-21.36c1.14-8.89,7.29-13.71,16.16-13.1A37.9,37.9,0,0,1,870.3,90c6,1.75,8.74,5.71,8.73,11.86C879,121.2,879,140.56,879,158.12Z"/></g></g></g></g></g></svg>