<svg xmlns="http://www.w3.org/2000/svg" viewBox="0 0 2259.6 322.31"><defs><style>.cls-1{fill:#333;}.cls-2{fill:#ff8b00;}</style></defs><g id="Layer_2" data-name="Layer 2"><g id="Final_Group" data-name="Final Group"><g id="Layer_2-2" data-name="Layer 2"><g id="Layer_6" data-name="Layer 6"><g id="_0_Combination" data-name=" 0 Combination"><path class="cls-1" d="M417,233.59V88.37h59.36q32.86,0,53.42,20.56t20.57,51.31q0,31.15-21.2,52.25t-54.49,21.1Zm57.66-115.12h-24.8v85h25.86q17.82,0,29.68-12.19t11.88-30.63q0-18.22-12.09-30.21t-30.52-12Z"/><path class="cls-1" d="M652.75,233.59l-8.27-25h-57l-8.27,25H545.48l51.3-145.22h40.28l51.09,145.22Zm-18-54.06-18.87-56.82L597,179.53Z"/><path class="cls-1" d="M788.43,233.59l-58.52-92v92H698.33V88.37h35.83l58.51,92.22V88.37h31.58V233.59Z"/><path class="cls-1" d="M874.92,233.59H842.06V88.37h32.86Z"/><path class="cls-1" d="M892.51,233.59V88.37H998.72v29.68H925.37V145.4h67.84v28.83H925.37v29.68h73.56v29.68Z"/><path class="cls-1" d="M1013.56,233.59V88.37h32.86V203.48h67.41v30.11Z"/><path class="cls-1" d="M1170.65,233.59V88.37h32.85V203.48h67.42v30.11Z"/><path class="cls-1" d="M1385.61,233.59l-8.27-25h-57l-8.27,25h-33.7l51.3-145.22H1370l51,145.22Zm-18-54.06-18.87-56.82-18.87,56.82Z"/><path class="cls-1" d="M1431.18,233.59V88.37H1491q23.1,0,35,11.13t11.87,28.3q0,20.14-18.23,29.47,28,8.47,28,34.76,0,18.66-13.14,30.11t-38,11.45Zm57.45-117H1464v29.68h24.59q8.28,0,12.62-4.13a14.43,14.43,0,0,0,4.34-10.92,13.8,13.8,0,0,0-4.34-10.6q-4.31-4.05-12.58-4.06Zm5.94,57.45H1464v31.38h30.74q9.33,0,14.63-4.24a13.49,13.49,0,0,0,5.3-11,14.49,14.49,0,0,0-5.3-11.66q-5.25-4.52-14.8-4.52Z"/><path class="cls-1" d="M1593.78,184.19v49.4h-32.86V88.37h61.91q22.89,0,36.46,13.35t13.57,35a45.38,45.38,0,0,1-10.71,30q-10.71,12.83-28.94,16.43l46.22,50.46h-42.82ZM1618,118.47h-24.17v38.8h23.11q10.61,0,16.75-5.41a17.62,17.62,0,0,0,6.15-13.88q0-8.7-5.62-14.1T1618,118.47Z"/><path class="cls-1" d="M1790.94,233.59l-8.27-25h-57l-8.27,25h-33.7L1735,88.37h40.28l51.09,145.22Zm-18-54.06-18.87-56.82-18.87,56.82Z"/><path class="cls-1" d="M1836.52,233.59V88.37h59.35q32.87,0,53.43,20.56t20.56,51.31q0,31.15-21.2,52.25t-54.48,21.1Zm57.66-115.12h-24.81v85h25.87q17.8,0,29.68-12.19t11.87-30.63q0-18.22-12.09-30.21T1894.18,118.47Z"/><path class="cls-1" d="M2054.79,233.34q-30.74,0-52.33-20.87t-21.58-51.62q0-30.94,21.58-51.82t52.33-20.87q31.36,0,52.64,20.77t21.28,51.72q0,31.15-21.28,51.92T2054.79,233.34Zm-29.72-41.74q12,12.42,29.72,12.42t29.73-12.42q12-12.42,12-30.95,0-18.12-12-30.64t-29.73-12.52q-17.71,0-29.72,12.52t-12,30.84q0,18.33,12,30.75Z"/><path class="cls-1" d="M2174,184.19v49.4h-32.86V88.37H2203q22.89,0,36.46,13.35t13.57,35a45.38,45.38,0,0,1-10.71,30q-10.7,12.83-28.93,16.43l46.21,50.46h-42.82Zm24.16-65.72H2174v38.8h23.1q10.61,0,16.75-5.41A17.66,17.66,0,0,0,2220,138q0-8.7-5.62-14.1t-16.27-5.43Z"/><g id="_0_icon" data-name=" 0 icon"><path class="cls-2" d="M322.31,0V174.44A369.6,369.6,0,0,0,250,72.31,369.44,369.44,0,0,0,147.86,0Z"/><path class="cls-2" d="M175,322.31H0v-175A185.58,185.58,0,0,1,175,322.31Z"/><path class="cls-1" d="M0,.19C175.32,5.93,316.38,147,322.13,322.31H210.9C205.29,208.39,113.92,117,0,111.42Z"/></g></g></g></g></g></g></svg>