<svg xmlns="http://www.w3.org/2000/svg" viewBox="0 0 1330.04 322.31"><defs><style>.cls-1{fill:#ff8b00;}.cls-2{fill:#fff;}</style></defs><g id="Layer_2" data-name="Layer 2"><g id="Layer_6" data-name="Layer 6"><path class="cls-1" d="M322.31,0V174.44A369.63,369.63,0,0,0,250,72.31,369.4,369.4,0,0,0,147.86,0Z"/><path class="cls-1" d="M175,322.31H0v-175A185.57,185.57,0,0,1,175,322.31Z"/><path class="cls-2" d="M0,.19C175.32,5.93,316.38,147,322.13,322.31H210.9C205.29,208.39,113.92,117,0,111.42Z"/><path class="cls-2" d="M417.49,234.18V87.44h60.42q33.45,0,54.38,20.78t20.93,51.84q0,31.49-21.58,52.81t-55.46,21.31Zm58.69-116.32H450.94v85.9h26.32q18.14,0,30.21-12.32t12.09-30.95q0-18.42-12.3-30.53T476.18,117.86Z"/><path class="cls-2" d="M657.44,234.18,649,208.9H591l-8.41,25.28H548.26L600.48,87.44h41l52,146.74ZM639.1,179.55l-19.2-57.41-19.21,57.41Z"/><path class="cls-2" d="M795.55,234.18l-59.56-93v93H703.84V87.44h36.47l59.55,93.18V87.44H832V234.18Z"/><path class="cls-2" d="M883.59,234.18H850.14V87.44h33.45Z"/><path class="cls-2" d="M901.49,234.18V87.44H1009.6v30H934.94v27.63h69V174.2h-69v30h74.88v30Z"/><path class="cls-2" d="M1024.71,234.18V87.44h33.45V203.76h68.61v30.42Z"/><path class="cls-2" d="M1184.6,234.18V87.44h33.45V203.76h68.62v30.42Z"/><path class="cls-2" d="M1330,234.18H1299V203.12H1330Z"/></g></g></svg>