<svg xmlns="http://www.w3.org/2000/svg" viewBox="0 0 512 512"><defs><style>.cls-1{fill:#aaa;fill-rule:evenodd;}</style></defs><g id="Layer_2" data-name="Layer 2"><g id="Layer_1-2" data-name="Layer 1"><path class="cls-1" d="M412,0H100A100,100,0,0,0,0,100V412A100,100,0,0,0,100,512H412A100,100,0,0,0,512,412V100A100,100,0,0,0,412,0ZM255.75,365l-19.08-73.19H161.93L142.46,365H101.58l70.47-244.87V108h53.33L302.08,365Zm125.74,0h-42V174h42ZM359.93,148.57a24.38,24.38,0,1,1,24.67-24.38A24.52,24.52,0,0,1,359.93,148.57Z"/><polygon class="cls-1" points="226.16 254 172.44 254 199.69 145.38 226.16 254"/></g></g></svg>