<svg xmlns="http://www.w3.org/2000/svg" viewBox="0 0 1321.58 324.96"><defs><style>.cls-1{fill:#828282;}</style></defs><g id="Layer_2" data-name="Layer 2"><g id="Layer_6" data-name="Layer 6"><path class="cls-1" d="M734,147.61c-1.89,14.14-.26,26.59-.5,39-.24,12.25-.4,24.49-.73,36.74-.2,7.57-4.25,11.86-12,13.11s-14.07-2.22-16.43-9.11a37,37,0,0,1-1.61-13.3c.79-25.13-1.63-50.16-2.14-75.24-.27-13.46.4-26.89,1.15-40.31.59-10.44,4.77-13.22,14.93-13.29,14-.09,23.22,4.17,30.61,17.75,12.21,22.47,27.69,43.16,41.85,64.57,1.3,2,2.54,4.07,4.76,5.27,2.81-1,1.79-3.5,1.75-5.33-.36-19.11-.88-38.23-1.29-57.34a55.54,55.54,0,0,1,.37-9.83c1.47-9.1,7.35-13.42,16.52-12.36a67.37,67.37,0,0,1,7,1.4c6.61,1.5,10.12,5,10.06,11.75-.22,24.81,3.43,49.56,1.66,74.31-1.1,15.51-.56,31-1.75,46.5-.64,8.33-2.92,10.77-11.16,12.66-4,.93-8,2.12-12.34,1.55-8.43-1.1-14.62-4.14-19.29-12.29-10.36-18.1-21.87-35.57-33.38-53C747,163.16,740.76,156.23,734,147.61Z"/><path class="cls-1" d="M464,89.26c10.74-.3,21.45-.31,32.12,1.33,18.33,2.82,33.85,11.17,44,26.38,13.76,20.55,20.13,42.89,9.82,67.54-7,16.72-16.77,30.83-32.64,40.18-8.12,4.78-17.13,7-26.27,8.15-19.26,2.52-38.71,1-58.06,2-6,.29-9.28-2.56-11.19-8.38A40.83,40.83,0,0,1,420,213.21c.22-19.67.44-39.34.53-59,.05-11-2.24-21.95-1.8-33,.22-5.66.1-11.35.62-17,.92-10.07,3.66-12.82,13.38-15.09a45.31,45.31,0,0,1,14.22-.7C452.64,88.88,458.31,89,464,89.26Zm-11.21,73.21h.53c.48,11.63,1.38,23.26,1.27,34.88-.06,5.14,2.33,6.3,6.23,6.4,10.14.24,20.4,1,30.32-1.41,6.31-1.52,13-3.5,17.44-8.6,15.67-17.87,16.57-42.77,1.15-61.38-3.65-4.4-8-8.07-13.63-9.81a106.7,106.7,0,0,0-32.6-5c-8,.06-10.53,2.54-10.66,10.89C452.63,139.79,452.76,151.13,452.76,162.47Z"/><path class="cls-1" d="M928.79,203.78c20.58.32,40,1.46,59.41.5,9.79-.48,15.25,4.32,15.71,13.09.57,10.64-4.43,18-13.73,18.68a120.37,120.37,0,0,1-22.38-.26,90.68,90.68,0,0,0-16.95-.48c-15,1.16-29.85-.27-44.7-1.89-8.87-1-12.55-5.16-13.06-14.07a32.2,32.2,0,0,1,0-5.38c3.11-28.31,1.21-56.72,1.46-85.08.08-9.83,1.38-19.55,1.3-29.38,0-6.13,5-10,12.46-10.21,9-.26,18-.56,26.89,0,16.5,1.12,32.82-1.42,49.24-1.61.3,0,.6-.09.89-.12,18.4-2,21.46,7.42,18.72,23.22-1.08,6.23-6,8.78-13.66,8.86-17.93.17-35.84,1-53.78.56-6.38-.17-6.39.15-6.28,6.34.09,5.07.57,10.18.18,15.22-.36,4.77,1.85,5.56,5.79,5.29,13.71-1,27.42-1.7,41.12-2.74a37.38,37.38,0,0,1,8.91.11c7.85,1.27,10.52,4.6,11.19,12.51,1.47,17.2-5,20.29-19.49,20.09-13.46-.19-26.9-.12-40.35.43-7,.29-7.14.35-7.77,7.65C929.44,191.06,929.2,197,928.79,203.78Z"/><path class="cls-1" d="M669.42,233.13c-1,.11-2.51.32-4,.43-5.8.4-9.88-2.07-11.73-7.59-1.41-4.23-2.48-8.57-3.55-12.9-.66-2.67-1.85-4.15-4.91-3.89-15.8,1.38-31.63-.36-47.46.32-4.86.21-8.06,1.32-8.81,6.49a5.77,5.77,0,0,1-.35.82c-6.39,17.69-7.91,18.73-26.46,18.07-7.95-.28-11.95-5.47-10-13.15a30,30,0,0,1,2.19-5.86c7.59-15.29,11.43-31.94,17.38-47.82,4.48-12,8.88-24,13.1-36,3.94-11.25,7.59-22.59,11.4-33.88,2.71-8,4.52-9.09,12.83-9.55a158.88,158.88,0,0,1,21.26.25c7.65.59,11.2,4,13.69,10.45,5,13,10.11,26.1,15.57,39,6.52,15.36,12.62,30.74,16.91,47,2.77,10.52,5.91,21.14,9.49,31.53,4,11.63-.14,16.87-12.52,16.56C672.26,233.31,671.07,233.22,669.42,233.13ZM601.26,179h36.68c-7.44-17.14-10.14-35.52-18.74-52.48C613,144.07,606,160.51,601.26,179Z"/><path class="cls-1" d="M1206.76,204.19c18.87-2.12,36.74,0,54.63-.18,10.39-.13,14,3.35,14.1,13.69a59.12,59.12,0,0,1-.29,8.94c-1,6.31-6.08,10.31-12.08,9.17-13-2.49-26.14-1.29-39.21-1.59-12.21-.27-24.44.3-36.66.34-5.91,0-9.76-3.26-11.16-9.59-1.63-7.3-2.71-14.86-2.12-22.22,1.32-16.37,1.65-32.76,2.08-49.15.18-7.14-.21-14.32-.74-21.46a118.63,118.63,0,0,1,0-20.56c.3-3,.62-5.87-.25-8.84a11,11,0,0,1,.37-7c2.63-6.86,11-9.73,21.79-7.5,7.69,1.58,11.94,6.23,11.44,13.59-.82,11.91-2,23.83-1.28,35.76,1,18.21,0,36.37-.64,54.55C1206.64,195.66,1206.76,199.22,1206.76,204.19Z"/><path class="cls-1" d="M1018,164.34c0-18.2-.06-36.39.07-54.59a50,50,0,0,0-.7-7.93c-1.09-7,2.81-12.36,9.84-13.51a37.53,37.53,0,0,1,9.82-.18c11.17,1.18,14.39,5,13.68,16.36-1.49,23.85-2.45,47.69-.31,71.57.61,6.81-1.65,13.61-.52,20.53,1.24,7.53,1.09,7.65,9,7.7,14.64.09,29.33.81,43.91-.14,14-.91,19.1,11.09,15.19,21.43-2.42,6.39-7.11,8.53-13.14,8.82-8.66.42-17.33.76-26,.74-15.83,0-31.66-.18-47.48-.69-10.39-.33-13.37-3.31-13.35-13.69C1018,202,1016.42,183.16,1018,164.34Z"/><path class="cls-1" d="M879.17,157.9c1.54,19.65,1.16,37.55,1.22,55.44a38.94,38.94,0,0,1-1.53,12.37c-2.24,6.82-6.08,9.83-13.05,10.08-.89,0-1.78-.14-2.67-.17-14.24-.53-18.94-4.84-18.44-19.05,1.08-31.26-.07-62.51.1-93.77a175.83,175.83,0,0,1,1.58-21.37c1.14-8.88,7.29-13.7,16.17-13.1a38.09,38.09,0,0,1,7.91,1.43c6,1.75,8.73,5.71,8.72,11.86C879.14,121,879.17,140.33,879.17,157.9Z"/><path class="cls-1" d="M1321.26,219l0,.05v0c.13,1.35.22,3,.29,4.77a10.14,10.14,0,0,1-.68,4.53,6.53,6.53,0,0,1-3.3,4.59,15.36,15.36,0,0,1-6.13,1.81l-2.58.25a31.82,31.82,0,0,1-9.42-.29,24,24,0,0,1-8.13-3.48,7.23,7.23,0,0,1-2.6-5.07,25.78,25.78,0,0,1,.09-7.38l0-.05v0c-.13-1.35-.24-3-.31-4.77a10.46,10.46,0,0,1,.7-4.53,6.55,6.55,0,0,1,3.29-4.59,15.4,15.4,0,0,1,6.14-1.81l2.57-.25a31.89,31.89,0,0,1,9.43.29,24,24,0,0,1,8.12,3.48,7.21,7.21,0,0,1,2.59,5.07A25.07,25.07,0,0,1,1321.26,219Z"/><path class="cls-1" d="M271.46,322.88c-15.2,1-30.46-.95-45.66,1-4.51.57-8.23-1.61-10.43-5.61a26,26,0,0,1-2.82-7.49C208.8,291.39,202,272.85,196.3,254c-5.17-17-15-31.86-24.87-46.44-5.53-8.13-10.87-16.4-17.52-23.8a95.27,95.27,0,0,0-17.25-15.54c-7.16-4.86-14.23-9.77-20.64-15.71s-14.33-9.62-22.36-13S77.59,133,70,128.9c-13.46-7.2-28-10.18-42.85-12.13-5.33-.7-10.68-1.28-16-2.25-6.33-1.16-9.94-5-9.15-11.21C2.94,96,1.45,89,.79,81.93-1,62.85.75,43.76.79,24.67c0-3-.06-6,0-9C1,6.1,5.65,1.58,15.26,1.57,28.82,1.56,42,4.27,55,7.67,74.35,12.74,93.9,17,113.22,22.1c26.55,7,51.14,18.2,71.63,37.18,4.14,3.83,9.09,6.78,13.53,10.31,22.86,18.14,42.12,39.66,59.64,62.89a402.94,402.94,0,0,1,26.21,38.44c8.42,14.3,14.42,29.46,19.9,44.94,5.37,15.16,12.63,29.69,15.24,45.77,2.58,15.91,5.59,31.79,5.81,48,.13,10-3.23,13.56-13.36,13.69C298.37,323.47,284.93,322,271.46,322.88Z"/><path class="cls-1" d="M31.78,322.77c-5.08,0-10.16,0-15.24,0-8.81.09-15.82-5.43-14.26-15.11.88-5.44-.9-11.26-.88-16.91.05-19.09,0-38.18.71-57.24.66-17.34-.43-34.59-1.12-51.87A184.72,184.72,0,0,1,1.15,162c.69-10.41,7.06-15.3,17-12.57,6.69,1.84,13.45.46,20.28,2.3,9.67,2.62,18.46,6.84,27,11.52,11.77,6.44,23.1,13.68,35,19.83,9.21,4.74,15.46,13,23.13,19.62,4.95,4.25,9.21,9.34,13.55,14.26,19.47,22.06,30,48.39,36.4,76.68.86,3.79,2,7.51,2.78,11.31,1.68,8.41-.86,13-8.93,16-5.64,2.11-11.6,2.56-17.55,3.25-10.46,1.2-20.86-.12-31.27-.24-12.56-.15-25.08.67-37.62.95a190.22,190.22,0,0,1-31.27-1.51c-5.84-.83-11.91-.15-17.87-.15Z"/><path class="cls-1" d="M328.88,151a101.53,101.53,0,0,1-1.15,17c-.37,2.89-1.05,5.48-4.45,5.69s-5.91-1.45-6.63-4.8c-2.84-13.16-10.27-24.07-17.38-35.06A232.19,232.19,0,0,0,283.82,113c-10.41-12.7-19.08-26.68-30-39.06-21.23-24.14-46.1-43.12-75.4-56.33-5.16-2.32-10.33-4.63-15.48-7-2.81-1.28-5.71-2.9-4.86-6.53s4.23-3.8,7.25-3.94c6.53-.3,13.06.49,19.56.71C196,1.2,207,1.19,218,.57c22.43-1.26,44.78-.16,67.17.69,8.93.35,17.89-.41,26.84-.43,10.9,0,16.29,5.35,15.17,16-3.21,30.42-2.12,60.78-.26,91.22C327.8,122.36,328.13,136.7,328.88,151Z"/></g></g></svg>