<svg xmlns="http://www.w3.org/2000/svg" viewBox="0 0 328.93 400.64"><defs><style>.cls-1{fill:#333;}.cls-2{fill:#ff8b00;}</style></defs><g id="Layer_2" data-name="Layer 2"><g id="Layer_6" data-name="Layer 6"><path class="cls-1" d="M271.46,322.88c-15.2,1-30.46-.95-45.66,1-4.51.57-8.23-1.61-10.43-5.61a26,26,0,0,1-2.82-7.49C208.8,291.39,202,272.85,196.3,254c-5.17-17-15-31.86-24.87-46.44-5.53-8.13-10.87-16.4-17.52-23.8a95.27,95.27,0,0,0-17.25-15.54c-7.16-4.86-14.23-9.77-20.64-15.71s-14.33-9.62-22.36-13S77.59,133,70,128.9c-13.46-7.2-28-10.18-42.85-12.13-5.33-.7-10.68-1.28-16-2.25-6.33-1.16-9.94-5-9.15-11.21C2.94,96,1.45,89,.79,81.93-1,62.85.75,43.76.79,24.67c0-3-.06-6,0-9C1,6.1,5.65,1.58,15.26,1.57,28.82,1.56,42,4.27,55,7.67,74.35,12.74,93.9,17,113.22,22.1c26.55,7,51.14,18.2,71.63,37.18,4.14,3.83,9.09,6.78,13.53,10.31,22.86,18.14,42.12,39.66,59.64,62.89a402.94,402.94,0,0,1,26.21,38.44c8.42,14.3,14.42,29.46,19.9,44.94,5.37,15.16,12.63,29.69,15.24,45.77,2.58,15.91,5.59,31.79,5.81,48,.13,10-3.23,13.56-13.36,13.69C298.37,323.47,284.93,322,271.46,322.88Z"/><path class="cls-2" d="M31.78,322.77c-5.08,0-10.16,0-15.24,0-8.81.09-15.82-5.43-14.26-15.11.88-5.44-.9-11.26-.88-16.91.05-19.09,0-38.18.71-57.24.66-17.34-.43-34.59-1.12-51.87A184.72,184.72,0,0,1,1.15,162c.69-10.41,7.06-15.3,17-12.57,6.69,1.84,13.45.46,20.28,2.3,9.67,2.62,18.46,6.84,27,11.52,11.77,6.44,23.1,13.68,35,19.83,9.21,4.74,15.46,13,23.13,19.62,4.95,4.25,9.21,9.34,13.55,14.26,19.47,22.06,30,48.39,36.4,76.68.86,3.79,2,7.51,2.78,11.31,1.68,8.41-.86,13-8.93,16-5.64,2.11-11.6,2.56-17.55,3.25-10.46,1.2-20.86-.12-31.27-.24-12.56-.15-25.08.67-37.62.95a190.22,190.22,0,0,1-31.27-1.51c-5.84-.83-11.91-.15-17.87-.15Z"/><path class="cls-2" d="M328.88,151a101.53,101.53,0,0,1-1.15,17c-.37,2.89-1.05,5.48-4.45,5.69s-5.91-1.45-6.63-4.8c-2.84-13.16-10.27-24.07-17.38-35.06A232.19,232.19,0,0,0,283.82,113c-10.41-12.7-19.08-26.68-30-39.06-21.23-24.14-46.1-43.12-75.4-56.33-5.16-2.32-10.33-4.63-15.48-7-2.81-1.28-5.71-2.9-4.86-6.53s4.23-3.8,7.25-3.94c6.53-.3,13.06.49,19.56.71C196,1.2,207,1.19,218,.57c22.43-1.26,44.78-.16,67.17.69,8.93.35,17.89-.41,26.84-.43,10.9,0,16.29,5.35,15.17,16-3.21,30.42-2.12,60.78-.26,91.22C327.8,122.36,328.13,136.7,328.88,151Z"/><path class="cls-1" d="M116,367.57c-.69,5.24-.1,9.87-.18,14.48s-.15,9.09-.27,13.63c-.07,2.81-1.54,4.41-4.35,4.87a5,5,0,0,1-6-3.38,14.25,14.25,0,0,1-.58-4.94c.29-9.33-.59-18.62-.78-27.93-.1-5,.15-10,.42-15,.21-3.88,1.73-4.91,5.41-4.93,5.07,0,8.42,1.54,11.09,6.59,4.43,8.33,10,16,15.17,24a5.26,5.26,0,0,0,1.73,2c1-.38.64-1.3.63-2-.13-7.09-.32-14.19-.47-21.28A21.12,21.12,0,0,1,138,350c.53-3.38,2.66-5,6-4.59a24.32,24.32,0,0,1,2.54.52c2.4.56,3.67,1.86,3.65,4.36-.08,9.21,1.24,18.4.6,27.58-.4,5.76-.2,11.52-.63,17.27-.24,3.09-1.06,4-4,4.69a12,12,0,0,1-4.47.58,8.47,8.47,0,0,1-7-4.56c-3.76-6.72-7.93-13.21-12.1-19.67C120.68,373.34,118.43,370.76,116,367.57Z"/><path class="cls-1" d="M18.13,345.91a62.1,62.1,0,0,1,11.64.49c6.64,1.05,12.27,4.15,16,9.79,5,7.63,7.3,15.92,3.56,25.07-2.53,6.21-6.08,11.45-11.83,14.92a24.36,24.36,0,0,1-9.52,3c-7,.94-14,.39-21,.74-2.18.11-3.36-.95-4-3.11a15.34,15.34,0,0,1-.63-4.91c.08-7.31.16-14.61.19-21.91,0-4.09-.81-8.15-.65-12.25.08-2.1,0-4.21.22-6.3.34-3.74,1.33-4.76,4.85-5.61A16,16,0,0,1,12,345.6C14,345.76,16.08,345.81,18.13,345.91Zm-4.06,27.17h.19c.17,4.32.5,8.63.46,12.95,0,1.91.84,2.34,2.26,2.37,3.67.09,7.39.37,11-.52,2.28-.57,4.69-1.3,6.32-3.19a17.47,17.47,0,0,0,.41-22.78,10.55,10.55,0,0,0-4.94-3.65A37.91,37.91,0,0,0,18,356.41c-2.9,0-3.82.94-3.87,4C14,364.66,14.07,368.87,14.07,373.08Z"/><path class="cls-1" d="M186.58,388.41c7.46.12,14.48.55,21.53.19,3.54-.18,5.52,1.61,5.69,4.86.2,4-1.61,6.66-5,6.93a42.27,42.27,0,0,1-8.11-.09,31.53,31.53,0,0,0-6.14-.18,85.19,85.19,0,0,1-16.2-.7c-3.21-.36-4.55-1.92-4.73-5.23a12,12,0,0,1,0-2c1.13-10.51.44-21.06.53-31.58,0-3.65.5-7.26.47-10.91,0-2.28,1.8-3.71,4.52-3.79a95.88,95.88,0,0,1,9.74,0c6,.42,11.9-.53,17.85-.6.11,0,.21,0,.32,0,6.67-.75,7.78,2.75,6.78,8.62-.39,2.31-2.17,3.26-5,3.28-6.49.07-13,.39-19.49.21-2.31-.06-2.31.06-2.27,2.35,0,1.89.2,3.78.06,5.66s.67,2.06,2.1,2c5-.35,9.94-.63,14.9-1a14,14,0,0,1,3.23,0c2.85.48,3.81,1.71,4.06,4.65.53,6.38-1.81,7.53-7.06,7.45-4.88-.07-9.75,0-14.63.16-2.55.11-2.58.13-2.81,2.84C186.81,383.69,186.73,385.9,186.58,388.41Z"/><path class="cls-1" d="M92.58,399.31c-.37,0-.91.12-1.45.16a3.8,3.8,0,0,1-4.25-2.82c-.51-1.57-.9-3.18-1.28-4.79-.24-1-.67-1.54-1.78-1.44-5.73.51-11.47-.13-17.2.12-1.76.08-2.93.49-3.2,2.4a1.66,1.66,0,0,1-.12.31c-2.32,6.57-2.87,6.95-9.59,6.71-2.88-.11-4.33-2-3.63-4.88a11.16,11.16,0,0,1,.8-2.18c2.75-5.67,4.14-11.85,6.3-17.75q2.43-6.66,4.75-13.38c1.42-4.17,2.75-8.38,4.13-12.57,1-3,1.63-3.37,4.64-3.55a56.71,56.71,0,0,1,7.71.1c2.77.22,4.06,1.49,5,3.87,1.82,4.85,3.66,9.69,5.64,14.47a128.81,128.81,0,0,1,6.13,17.45c1,3.9,2.14,7.84,3.44,11.7,1.46,4.32,0,6.26-4.54,6.15C93.61,399.38,93.18,399.34,92.58,399.31ZM67.88,379.2H81.17c-2.69-6.36-3.67-13.18-6.79-19.48C72.14,366.25,69.59,372.35,67.88,379.2Z"/><path class="cls-1" d="M287.31,388.57c6.84-.79,13.32,0,19.8-.07,3.76-.05,5.08,1.25,5.11,5.08a21.6,21.6,0,0,1-.11,3.32,3.71,3.71,0,0,1-4.37,3.4c-4.72-.92-9.48-.48-14.22-.59-4.42-.1-8.85.11-13.28.13-2.14,0-3.54-1.21-4.05-3.56a28.42,28.42,0,0,1-.76-8.25c.47-6.08.6-12.16.75-18.24.07-2.65-.08-5.32-.27-8a45.21,45.21,0,0,1,0-7.63,8.42,8.42,0,0,0-.09-3.28,4.17,4.17,0,0,1,.14-2.61c.95-2.55,4-3.62,7.89-2.79,2.79.59,4.33,2.32,4.15,5.05a107,107,0,0,0-.46,13.27c.38,6.76,0,13.5-.23,20.25C287.27,385.4,287.31,386.72,287.31,388.57Z"/><path class="cls-1" d="M218.89,373.78c0-6.76,0-13.51,0-20.27a18,18,0,0,0-.25-2.94,4.14,4.14,0,0,1,3.57-5,13.25,13.25,0,0,1,3.56-.06c4,.44,5.21,1.86,5,6.07a179.87,179.87,0,0,0-.12,26.57c.22,2.52-.6,5.05-.19,7.62.45,2.79.4,2.84,3.26,2.86,5.3,0,10.63.29,15.91-.06,5.08-.33,6.92,4.12,5.5,8-.87,2.37-2.57,3.16-4.76,3.27-3.13.15-6.28.28-9.41.27-5.74,0-11.48-.06-17.21-.25-3.77-.12-4.85-1.23-4.84-5.08C218.91,387.74,218.33,380.76,218.89,373.78Z"/><path class="cls-1" d="M168.59,371.38c.56,7.3.43,13.94.45,20.58a14.79,14.79,0,0,1-.56,4.59c-.81,2.54-2.2,3.65-4.73,3.75-.32,0-.64-.05-1-.07-5.16-.19-6.86-1.79-6.68-7.07.39-11.6,0-23.2,0-34.8a65.94,65.94,0,0,1,.57-7.94,5.14,5.14,0,0,1,5.86-4.86,14.09,14.09,0,0,1,2.87.53,4.1,4.1,0,0,1,3.16,4.4C168.58,357.68,168.59,364.86,168.59,371.38Z"/><path class="cls-1" d="M328.75,394.61h0v0c.05.5.08,1.09.1,1.76a3.53,3.53,0,0,1-.25,1.67,2.4,2.4,0,0,1-1.21,1.7,5.81,5.81,0,0,1-2.27.67l-.95.09a11.51,11.51,0,0,1-3.48-.11,9,9,0,0,1-3-1.28,2.63,2.63,0,0,1-1-1.87,9.63,9.63,0,0,1,0-2.73l0,0h0c0-.5-.09-1.09-.11-1.76a3.83,3.83,0,0,1,.26-1.68,2.41,2.41,0,0,1,1.21-1.69,5.49,5.49,0,0,1,2.27-.67l.95-.09a11.86,11.86,0,0,1,3.48.1,8.79,8.79,0,0,1,3,1.29,2.67,2.67,0,0,1,1,1.87A9.63,9.63,0,0,1,328.75,394.61Z"/></g></g></svg>