<?xml version="1.0" encoding="utf-8"?>
<!-- Generator: Adobe Illustrator 24.1.1, SVG Export Plug-In . SVG Version: 6.00 Build 0)  -->
<svg version="1.1" id="Layer_1" xmlns="http://www.w3.org/2000/svg" xmlns:xlink="http://www.w3.org/1999/xlink" x="0px" y="0px"
	 viewBox="0 0 2258.8 325" style="enable-background:new 0 0 2258.8 325;" xml:space="preserve">
<style type="text/css">
	.st0{fill:#333333;}
	.st1{fill:#FF8B00;}
</style>
<g id="Layer_2_1_">
	<g id="Final_Group">
		<g id="Layer_2-2">
			<g id="Layer_6">
				<g id="_0_Drawn_Combination">
					<path class="st0" d="M733.9,147.8c-1.9,14.1-0.3,26.6-0.5,39c-0.2,12.3-0.4,24.5-0.7,36.7c-0.2,7.6-4.3,11.9-12,13.1
						s-14.1-2.2-16.4-9.1c-1.3-4.3-1.9-8.8-1.6-13.3c0.8-25.1-1.6-50.1-2.1-75.2c-0.3-13.5,0.4-26.9,1.2-40.3
						c0.6-10.4,4.8-13.2,14.9-13.3c14-0.1,23.2,4.2,30.6,17.8c12.2,22.5,27.7,43.2,41.9,64.6c1.3,2,2.5,4.1,4.8,5.3
						c2.8-1,1.8-3.5,1.8-5.3c-0.4-19.1-0.9-38.2-1.3-57.3c-0.2-3.3,0-6.6,0.4-9.8c1.5-9.1,7.3-13.4,16.5-12.4c2.4,0.3,4.7,0.8,7,1.4
						c6.6,1.5,10.1,5,10.1,11.8c-0.2,24.8,3.4,49.5,1.7,74.3c-1.1,15.5-0.6,31-1.8,46.5c-0.7,8.3-2.9,10.8-11.2,12.6
						c-4,0.9-8,2.1-12.3,1.6c-8.4-1.1-14.6-4.1-19.3-12.3c-10.4-18.1-21.9-35.6-33.4-53C746.8,163.4,740.6,156.4,733.9,147.8z"/>
					<path class="st0" d="M1528.1,156.9c4.1,2.3,8,4.1,11.4,6.5c5.5,3.7,9.4,9.3,10.9,15.8c1.6,6.7,2.5,13.5,2.6,20.4
						c0,9.6-5.7,16.7-12.8,22.6c-8.3,7-18.3,9.7-28.8,10.9c-14.8,1.8-29.8,2.4-44.6,3.3c-7.2,0.4-14.2-1.5-21.3-1.9
						c-5.5-0.3-9-5.4-9.3-12.5c-0.5-10.4-1-20.9-0.8-31.3c0.5-20.9-2.3-41.7-2-62.6c0.1-9.2,0.3-18.5,1-27.7
						c0.5-8.1,5.2-12.1,13.2-12.8c17.5-1.4,35.2-1.3,52.7,0.4c7.1,0.7,14.6,1.4,20.9,4.4c10,4.8,16.5,13.7,19.4,24.5
						C1544.7,132.6,1541.4,142.5,1528.1,156.9z M1488.7,204.9v0.2c4.5,0.2,9,0.6,13.4,0.6c10.9,0,18.6-12.3,14-22
						c-3.4-7.1-9.2-10-16.6-9.8c-9,0.3-17.9,1.1-26.9,1.4c-3.1,0.1-4.2,1.3-4.2,4.3c0.1,6-0.3,11.9-0.1,17.9c0.2,7,0.4,7.1,7.8,7.3
						C1480.4,205,1484.6,204.9,1488.7,204.9z M1484.6,118.5h-12.5c-1.9,0-4.1,0.4-3.8,2.7c1,7.4-0.8,14.8-0.2,22.3
						c0.3,3.4,1.9,3.8,4.7,3.6c7.7-0.8,15.4-1.2,23.1-2.3c7-1,11.5-6.1,12.3-13.1c0.8-7.3-2.7-12.2-10.1-13
						C1493.6,118.1,1489,118.5,1484.6,118.5z"/>
					<path class="st0" d="M1598.3,196v25.7c0.1,8.2-3.1,12.1-11.1,13.3c-2.4,0.3-4.8,0.5-7.1,0.4c-10.2-0.3-14.6-4.9-14.6-15
						c-0.1-37.9-0.1-75.8-0.2-113.6c-0.1-3,0.2-6,0.7-8.9c1-5.1,4-9.3,9.2-9.8c20.8-1.6,41.6-5,62.3,0.6c12,3.2,23.1,7.5,31,18.1
						c16.8,22.5,8.6,56.8-10.4,68.6c-5.5,3.4-10.5,7.9-17.5,10.3c5.8,6.8,12.2,12.1,18.6,17.3c4.9,3.9,9.3,8.5,13,13.5
						c2.8,3.9,4,8,1.5,12.5c-2.3,4-5.8,5.8-10.4,5.8c-3.3,0-6.6-0.1-9.9,0.1c-9,0.7-16-2.5-21.9-9.6c-9.3-11.3-21.4-19.7-31.3-30.4
						L1598.3,196z M1598.2,139.2c0,5.1,0.1,10.1,0,15.2c-0.1,3.1,1.3,4,4.2,4.3c9.6,1,19.1-0.6,28.6-1.4c5.4-0.4,8.6-3.8,9.8-9
						c2.2-9-0.7-17-4.9-24.8c-0.9-1.6-2.3-1.7-3.8-1.8c-9.2-0.9-18.4-2.3-27.7-1.9c-3.7,0.2-5.5,1-5.2,5.1"/>
					<path class="st1" d="M271.5,322.9c-15.2,1-30.5-1-45.7,1c-4.5,0.6-8.2-1.6-10.4-5.6c-1.3-2.3-2.3-4.9-2.8-7.5
						c-3.8-19.4-10.6-37.9-16.3-56.8c-5.2-17-15-31.9-24.9-46.4c-5.5-8.1-10.9-16.4-17.5-23.8c-5.1-5.9-10.9-11.1-17.3-15.5
						c-7.2-4.9-14.2-9.8-20.6-15.7s-14.3-9.6-22.4-13S77.6,133,70,128.9c-13.5-7.2-28-10.2-42.8-12.1c-5.3-0.7-10.7-1.3-16-2.3
						c-6.3-1.2-9.9-5-9.1-11.2C3,96,1.5,89,0.8,81.9c-1.8-19.1,0-38.2,0-57.3c0-3-0.1-6,0-9C1,6.1,5.7,1.6,15.3,1.6
						C28.8,1.6,42,4.3,55,7.7c19.4,5.1,38.9,9.3,58.2,14.4c26.5,7,51.1,18.2,71.6,37.2c4.1,3.8,9.1,6.8,13.5,10.3
						c22.9,18.1,42.1,39.7,59.6,62.9c9.5,12.3,18.2,25.1,26.2,38.4c8.4,14.3,14.4,29.5,19.9,44.9c5.4,15.2,12.6,29.7,15.2,45.8
						c2.6,15.9,5.6,31.8,5.8,48c0.1,10-3.2,13.6-13.4,13.7C298.4,323.5,284.9,322,271.5,322.9z"/>
					<path class="st0" d="M31.8,322.8H16.5c-8.8,0.1-15.8-5.4-14.3-15.1c0.9-5.4-0.9-11.3-0.9-16.9c0-19.1,0-38.2,0.7-57.2
						c0.7-17.3-0.4-34.6-1.1-51.9c-0.3-6.5-0.2-13.1,0.2-19.6c0.7-10.4,7.1-15.3,17-12.6c6.7,1.8,13.5,0.5,20.3,2.3
						c9.7,2.6,18.5,6.8,27,11.5c11.8,6.4,23.1,13.7,35,19.8c9.2,4.7,15.5,13,23.1,19.6c5,4.3,9.2,9.3,13.5,14.3
						c19.5,22.1,30,48.4,36.4,76.7c0.9,3.8,2,7.5,2.8,11.3c1.7,8.4-0.9,13-8.9,16c-5.6,2.1-11.6,2.6-17.6,3.3
						c-10.5,1.2-20.9-0.1-31.3-0.2c-12.6-0.1-25.1,0.7-37.6,1c-10.4,0.4-20.9-0.1-31.3-1.5c-5.8-0.8-11.9-0.1-17.9-0.1L31.8,322.8z"
						/>
					<path class="st0" d="M328.9,151c0.1,5.7-0.3,11.4-1.1,17c-0.4,2.9-1,5.5-4.5,5.7s-5.9-1.4-6.6-4.8
						c-2.8-13.2-10.3-24.1-17.4-35.1c-4.8-7.2-9.9-14.2-15.5-20.8c-10.4-12.7-19.1-26.7-30-39.1c-21.2-24.1-46.1-43.1-75.4-56.3
						c-5.2-2.3-10.3-4.6-15.5-7c-2.8-1.3-5.7-2.9-4.9-6.5s4.2-3.8,7.3-3.9c6.5-0.3,13.1,0.5,19.6,0.7C196,1.2,207,1.2,218,0.6
						c22.4-1.3,44.8-0.2,67.2,0.7c8.9,0.4,17.9-0.4,26.8-0.4c10.9,0,16.3,5.3,15.2,16c-3.2,30.4-2.1,60.8-0.3,91.2
						C327.8,122.4,328.1,136.7,328.9,151z"/>
					<path class="st0" d="M1840.5,137.2c0.8-10.7,1-21.5,0.5-32.3c-0.4-9.6,3.7-14.8,13.4-15.2c11.9-0.6,23.9-0.3,35.8,0
						c8,0.2,16.1-0.1,24.2,0.8c22,2.5,38.3,12.9,49.3,32.5c7.2,12.7,9.5,25.8,10.6,40.1c1,12.3-3.2,22.7-6.5,33.7
						c-0.6,2.3-1.7,4.5-3.2,6.4c-9.3,10.5-19.6,19.9-33.2,24.9c-22.4,8.3-45.7,7.4-69,7.4c-2.1,0-4.2-0.2-6.3-0.2
						c-8.1-0.1-12-3.3-13.5-11.2c-0.2-0.9-0.3-1.8-0.3-2.7C1841.8,192.9,1841.1,164.6,1840.5,137.2z M1897.5,204.6
						c4.5-0.6,9.5-0.4,13.9-2c10.4-3.8,20.1-8.4,25.6-19.4c6.3-12.6,6.9-24.8,1.8-37.9c-5-12.9-14.3-20-27.1-23.4
						c-11.6-3.1-23.2,0.6-34.8,0.1c-3.7-0.2-3.3,2.7-3.2,5c0.7,20.3,0.6,40.6,0.2,60.9c-0.1,3.6,0.4,7.1,0.5,10.7
						c0,2.8,0.8,4.4,4,4.4C1884.8,202.9,1891.2,203.4,1897.5,204.6L1897.5,204.6z"/>
					<path class="st0" d="M463.8,89.5c10.7-0.3,21.5-0.3,32.1,1.3c18.3,2.8,33.8,11.2,44,26.4c13.8,20.6,20.1,42.9,9.8,67.5
						c-7,16.7-16.8,30.8-32.6,40.2c-8.1,4.8-17.1,7-26.3,8.1c-19.3,2.5-38.7,1.1-58.1,2c-6,0.3-9.3-2.6-11.2-8.4
						c-1.3-4.3-1.9-8.8-1.7-13.3c0.2-19.7,0.4-39.3,0.5-59c0-11-2.2-21.9-1.8-33c0.2-5.7,0.1-11.3,0.6-17
						c0.9-10.1,3.7-12.8,13.4-15.1c4.7-1,9.5-1.2,14.2-0.7C452.5,89.1,458.2,89.2,463.8,89.5z M452.6,162.7h0.5
						c0.5,11.6,1.4,23.3,1.3,34.9c0,5.1,2.3,6.3,6.2,6.4c10.1,0.2,20.4,1,30.3-1.4c6.3-1.5,13-3.5,17.4-8.6
						c15.7-17.9,16.6-42.8,1.1-61.4c-3.6-4.4-8-8.1-13.6-9.8c-10.5-3.4-21.5-5-32.6-5c-8,0-10.5,2.5-10.7,10.9
						C452.5,140,452.6,151.4,452.6,162.7z"/>
					<path class="st0" d="M2221.8,185.1c6.1,9.9,14.6,18.2,23.3,26.2c2.4,2.2,5,4.4,6.9,7c5.4,7.8,0.8,17.3-8.7,17.2
						c-10.8-0.1-20.8-1-28.9-10.9c-9.8-12-21.5-22.4-32.4-33.5c-0.3-0.3-1-0.4-2.2-0.9c-0.8,4.6-1.2,9.3-1,14
						c0.4,6,0.6,11.9,0.5,17.9c-0.1,7.5-2.8,10.7-9.9,12.9c-5.4,1.7-10.7,0.6-15.9-0.5c-3-0.6-5.1-3.1-6.1-6.1
						c-0.9-2.2-1.4-4.6-1.5-7c0.3-13.7-1.6-27.4-0.5-41.2c1.6-19.4-0.7-38.8-0.1-58.2c0.2-6.6-0.1-13.2,0.4-19.7
						c0.9-11.3,5.9-14.7,17.1-13.6c13.4,1.3,26.9,0.8,40.3,0.6c6.6-0.1,13.1-0.3,19.6,1.4c26.4,6.7,39.3,25.8,35.4,52.7
						c-1.2,8.6-3,17.6-9.4,23.7c-6.9,6.5-14.4,12.6-23.7,15.7C2223.9,183.3,2222.5,183.1,2221.8,185.1z M2180.4,159.1
						c7.4,0,15.1,0.4,22.8-0.1c8.2-0.6,14.5-4.6,18.9-11.7c4.5-7.3,2.2-17.3-5.3-21.5c-10.4-5.8-21.4-6.4-32.9-4.6
						c-3.3,0.5-3.5,2.5-3.5,5C2180.4,136.8,2180.4,147.5,2180.4,159.1L2180.4,159.1z"/>
					<path class="st0" d="M928.6,204c20.6,0.3,40,1.5,59.4,0.5c9.8-0.5,15.3,4.3,15.7,13.1c0.6,10.6-4.4,18-13.7,18.7
						c-7.5,0.6-14.9,0.5-22.4-0.3c-5.6-0.7-11.3-0.9-17-0.5c-15,1.2-29.8-0.3-44.7-1.9c-8.9-1-12.5-5.1-13.1-14.1
						c-0.1-1.8-0.1-3.6,0-5.4c3.1-28.3,1.2-56.7,1.5-85.1c0.1-9.8,1.4-19.6,1.3-29.4c0-6.1,5-10,12.5-10.2c9-0.3,18-0.6,26.9,0
						c16.5,1.1,32.8-1.4,49.2-1.6c0.3,0,0.6-0.1,0.9-0.1c18.4-2,21.5,7.4,18.7,23.2c-1.1,6.2-6,8.8-13.7,8.9
						c-17.9,0.2-35.8,1-53.8,0.6c-6.4-0.2-6.4,0.2-6.3,6.3c0.1,5.1,0.6,10.2,0.2,15.2c-0.4,4.8,1.8,5.6,5.8,5.3
						c13.7-1,27.4-1.7,41.1-2.7c3-0.3,6-0.3,8.9,0.1c7.8,1.3,10.5,4.6,11.2,12.5c1.5,17.2-5,20.3-19.5,20.1
						c-13.5-0.2-26.9-0.1-40.3,0.4c-7,0.3-7.1,0.4-7.8,7.6C929.3,191.3,929,197.2,928.6,204z"/>
					<path class="st0" d="M2062.9,233.1c-13.2,1.3-26.6-1.3-38.2-7.7c-11.8-6.5-22.3-15.1-28.8-27.4c-13.2-24.9-15.2-50.6-0.2-74.9
						c10.2-16.4,25.6-27.2,45.5-32.2c20.2-5,38-0.2,55.5,8c23.1,10.8,35.1,29.8,36.2,55.3c0.8,18.1-0.8,36-11.4,51.4
						c-12.3,17.9-29.6,27.2-51.5,27.6C2067.8,233.1,2065.7,233.1,2062.9,233.1z M2099.5,164.4c0.2-2.4,0.2-4.8,0-7.2
						c-1.3-8.6-2.4-17.6-8.1-24.2c-9-10.3-20.6-15.8-34.9-14.6c-11,0.9-19.8,5.1-26.6,14c-13.2,17.4-11.8,35.5-3.5,54
						c2.2,5,6.4,8.9,11.6,10.7c4.5,1.6,8.9,3.6,13.5,4.6C2070.4,206,2103,193.3,2099.5,164.4L2099.5,164.4z"/>
					<path class="st0" d="M669.3,233.4c-1,0.1-2.5,0.3-4,0.4c-5.8,0.4-9.9-2.1-11.7-7.6c-1.4-4.2-2.5-8.6-3.5-12.9
						c-0.7-2.7-1.8-4.1-4.9-3.9c-15.8,1.4-31.6-0.4-47.5,0.3c-4.9,0.2-8.1,1.3-8.8,6.5c-0.1,0.3-0.2,0.6-0.3,0.8
						c-6.4,17.7-7.9,18.7-26.5,18.1c-8-0.3-12-5.5-10-13.1c0.5-2,1.3-4,2.2-5.9c7.6-15.3,11.4-31.9,17.4-47.8c4.5-12,8.8-24,13.1-36
						c3.9-11.2,7.6-22.6,11.4-33.9c2.7-8,4.5-9.1,12.8-9.5c7.1-0.4,14.2-0.3,21.3,0.2c7.7,0.6,11.2,4,13.7,10.4
						c5,13.1,10.1,26.1,15.6,39c6.5,15.4,12.6,30.7,16.9,47c2.8,10.5,5.9,21.1,9.5,31.5c4,11.6-0.1,16.9-12.5,16.6
						C672.1,233.5,670.9,233.4,669.3,233.4z M601.1,179.2h36.7c-7.4-17.1-10.1-35.5-18.7-52.5C612.8,144.3,605.8,160.7,601.1,179.2
						L601.1,179.2z"/>
					<path class="st0" d="M1352.7,88.6h4.5c20.4,0.1,18.2,0.6,23.5,17.7c8.4,27.2,20.1,53,30.7,79.3c4.2,10.8,7.8,21.9,10.6,33.2
						c2.8,10.5-1.8,15.7-12.9,16.2h-0.9c-17.1,0.4-18-0.2-23-16.8c-2-6.6-2-6.8-9.2-6.7c-13.8,0.2-27.5-0.3-41.2-1.3
						c-9.9-0.8-14.6,2.9-15,12.8c-0.3,6-1.2,11-7.3,12.7c-7.2,2.1-14.4,1.1-20.3-3.8c-4.4-3.7-4.3-9-2.6-14.1
						c5.2-16.1,10.3-32.3,16.1-48.3c5.4-14.8,11-29.6,16.8-44.3c3.3-8.3,4.1-17.4,7.8-25.6c3.8-8.6,5.7-10.2,15.4-10.4
						C1348.6,89.1,1351.5,88.7,1352.7,88.6z M1372.4,179.5c-7.3-18.5-10.1-37.1-20.5-55c-6,19.5-11.5,37.3-17.4,56.2
						C1347.6,178.2,1359.5,181.9,1372.4,179.5z"/>
					<path class="st0" d="M1813.2,235c-14.4-0.5-15.4-1.5-20.5-13.9c-5.5-13.7-3.2-12.1-18.7-11.3c-11.9,0.6-23.9-0.1-35.8-0.3
						c-7.8-0.1-7.8-0.1-10.5,7.3c-0.7,1.4-1.2,2.8-1.7,4.2c-1.9,10.5-8.8,13.9-18.7,14c-8.7,0.1-14.1-5.1-12.7-14.2
						c1-7.1,2.7-14.1,5.2-20.8c5.4-14.8,10.2-29.9,16.4-44.4c5-11.8,8.9-24.1,12.7-36.3c2.3-7.4,5.4-14.6,8.3-21.7
						c2.4-5.8,6.5-8.7,13.3-8.4c7.1,0.3,14.2-1.1,21.4,0.3c6,1.1,9.9,3.7,11.1,9.9c1.3,7.1,5.2,13.2,7.6,20
						c5.6,15.7,10.4,31.7,16.7,47.2c7,17.1,12.7,34.7,18.9,52.1c1.8,5.1,1.9,10-2.2,14.2C1820.6,236.2,1816.3,235.4,1813.2,235z
						 M1757.3,129.4c-5.5,18-10.4,33.9-15.5,50.6c12.1-0.2,23.5,2,35.7,0.1C1770.9,163.4,1766.3,146.6,1757.3,129.4L1757.3,129.4z"
						/>
					<path class="st0" d="M1206.6,204.4c18.9-2.1,36.8,0,54.6-0.2c10.4-0.1,14,3.4,14.1,13.7c0.1,3,0,6-0.3,8.9
						c-0.9,6.3-6.1,10.3-12.1,9.2c-13-2.5-26.1-1.3-39.2-1.6c-12.2-0.3-24.4,0.3-36.7,0.3c-5.9,0-9.8-3.3-11.2-9.6
						c-1.6-7.3-2.7-14.9-2.1-22.2c1.3-16.4,1.7-32.8,2.1-49.2c0.2-7.1-0.2-14.3-0.7-21.4c-0.6-6.8-0.6-13.7,0-20.6
						c0.3-3,0.6-5.9-0.3-8.8c-0.6-2.3-0.5-4.8,0.4-7c2.6-6.9,11-9.7,21.8-7.5c7.7,1.6,12,6.2,11.4,13.6c-0.8,11.9-2,23.8-1.3,35.8
						c1,18.2,0,36.4-0.6,54.6C1206.5,195.9,1206.6,199.4,1206.6,204.4z"/>
					<path class="st0" d="M1017.8,164.6c0-18.2-0.1-36.4,0.1-54.6c0-2.7-0.3-5.3-0.7-7.9c-1.1-7,2.8-12.4,9.9-13.5
						c3.3-0.5,6.6-0.6,9.8-0.2c11.2,1.2,14.4,5,13.7,16.4c-1.5,23.9-2.4,47.7-0.3,71.6c0.6,6.8-1.7,13.6-0.5,20.5
						c1.2,7.5,1.1,7.7,9,7.7c14.6,0.1,29.3,0.8,43.9-0.1c14-0.9,19.1,11.1,15.2,21.4c-2.4,6.4-7.1,8.5-13.1,8.8
						c-8.7,0.4-17.3,0.8-26,0.7c-15.8-0.1-31.7-0.2-47.5-0.7c-10.4-0.3-13.4-3.3-13.3-13.7C1017.8,202.2,1016.3,183.4,1017.8,164.6z
						"/>
					<path class="st0" d="M879,158.1c1.5,19.7,1.2,37.6,1.2,55.4c0.2,4.2-0.4,8.4-1.5,12.4c-2.2,6.8-6.1,9.8-13,10.1
						c-0.9,0-1.8-0.1-2.7-0.2c-14.2-0.5-18.9-4.8-18.4-19c1.1-31.3-0.1-62.5,0.1-93.8c0.1-7.1,0.6-14.3,1.6-21.4
						c1.1-8.9,7.3-13.7,16.2-13.1c2.7,0.2,5.3,0.7,7.9,1.4c6,1.8,8.7,5.7,8.7,11.9C879,121.2,879,140.6,879,158.1z"/>
				</g>
			</g>
		</g>
	</g>
</g>
</svg>
