<svg xmlns="http://www.w3.org/2000/svg" viewBox="0 0 322.31 395.96"><defs><style>.cls-1{fill:#333;}.cls-2{fill:#ff8b00;}</style></defs><g id="Layer_2" data-name="Layer 2"><g id="Layer_6" data-name="Layer 6"><path class="cls-1" d="M322.31,0V174.44A369.63,369.63,0,0,0,250,72.31,369.4,369.4,0,0,0,147.86,0Z"/><path class="cls-1" d="M175,322.31H0v-175A185.57,185.57,0,0,1,175,322.31Z"/><path class="cls-2" d="M0,.19C175.32,5.93,316.38,147,322.13,322.31H210.9C205.29,208.39,113.92,117,0,111.42Z"/><path class="cls-2" d="M.1,396V344.18H21.42q11.8,0,19.19,7.33A24.76,24.76,0,0,1,48,369.81a25.14,25.14,0,0,1-7.61,18.63Q32.76,396,20.81,396Zm20.71-41H11.9v30.32h9.29a14.3,14.3,0,0,0,10.66-4.35A14.94,14.94,0,0,0,36.12,370a14.47,14.47,0,0,0-4.34-10.77A15,15,0,0,0,20.81,354.91Z"/><path class="cls-2" d="M84.77,396l-3-8.92H61.32l-3,8.92H46.24l18.43-51.78H79.14L97.49,396ZM78.3,376.68l-6.78-20.25-6.77,20.25Z"/><path class="cls-2" d="M133.5,396l-21-32.81V396H101.14V344.18H114l21,32.88V344.18h11.35V396Z"/><path class="cls-2" d="M164.57,396h-11.8V344.18h11.8Z"/><path class="cls-2" d="M170.89,396V344.18H209v10.58H182.69v9.75h24.36v10.28H182.69v10.59h26.42V396Z"/><path class="cls-2" d="M214.36,396V344.18h11.81v41.05h24.21V396Z"/><path class="cls-2" d="M270.78,396V344.18h11.8v41.05H306.8V396Z"/></g></g></svg>