<svg xmlns="http://www.w3.org/2000/svg" viewBox="0 0 1329.56 322.31"><defs><style>.cls-1{fill:#ff8b00;}.cls-2{fill:#333;}</style></defs><g id="Layer_2" data-name="Layer 2"><g id="Layer_6" data-name="Layer 6"><path class="cls-1" d="M417,234V87.24h60.42q33.45,0,54.38,20.78t20.93,51.84q0,31.5-21.57,52.81T475.71,234Zm58.7-116.33H450.46v85.91h26.33q18.12,0,30.21-12.32t12.08-31q0-18.42-12.3-30.52T475.71,117.66Z"/><path class="cls-1" d="M657,234l-8.42-25.28h-58L582.09,234H547.78L600,87.24h41L693,234Zm-18.34-54.63L619.42,122l-19.2,57.41Z"/><path class="cls-1" d="M795.07,234l-59.56-93v93H703.36V87.24h36.47l59.56,93.19V87.24h32.15V234Z"/><path class="cls-1" d="M883.11,234H849.66V87.24h33.45Z"/><path class="cls-1" d="M901,234V87.24h108.11v30H934.47v27.63h69V174h-69v30h74.87v30Z"/><path class="cls-1" d="M1024.23,234V87.24h33.45V203.57h68.62V234Z"/><path class="cls-1" d="M1184.13,234V87.24h33.44V203.57h68.62V234Z"/><path class="cls-1" d="M1329.56,234h-31.07V202.92h31.07Z"/><path class="cls-2" d="M322.31,0V174.44A369.63,369.63,0,0,0,250,72.31,369.4,369.4,0,0,0,147.86,0Z"/><path class="cls-2" d="M175,322.31H0v-175A185.57,185.57,0,0,1,175,322.31Z"/><path class="cls-1" d="M0,.19C175.32,5.93,316.38,147,322.13,322.31H210.9C205.29,208.39,113.92,117,0,111.42Z"/></g></g></svg>