<?xml version="1.0" encoding="utf-8"?>
<!-- Generator: Adobe Illustrator 24.1.1, SVG Export Plug-In . SVG Version: 6.00 Build 0)  -->
<svg version="1.1" id="Layer_1" xmlns="http://www.w3.org/2000/svg" xmlns:xlink="http://www.w3.org/1999/xlink" x="0px" y="0px"
	 viewBox="0 0 2259.6 322.3" style="enable-background:new 0 0 2259.6 322.3;" xml:space="preserve">
<style type="text/css">
	.st0{fill:#333333;}
	.st1{fill:#FF8B00;}
</style>
<g id="Layer_2_1_">
	<g id="Final_Group">
		<g id="Layer_2-2">
			<g id="Layer_6">
				<g id="_0_Combination">
					<path class="st0" d="M417,233.6V88.4h59.4c21.9,0,39.7,6.9,53.4,20.6s20.6,30.8,20.6,51.3c0,20.8-7.1,38.2-21.2,52.3
						c-14.1,14.1-32.3,21.1-54.5,21.1L417,233.6z M474.7,118.5h-24.8v85h25.9c11.9,0,21.8-4.1,29.7-12.2
						c7.9-8.1,11.9-18.3,11.9-30.6c0-12.1-4-22.2-12.1-30.2C497.1,122.4,487,118.4,474.7,118.5L474.7,118.5z"/>
					<path class="st0" d="M652.8,233.6l-8.3-25h-57l-8.3,25h-33.7l51.3-145.2h40.3l51.1,145.2H652.8z M634.8,179.5l-18.9-56.8
						L597,179.5H634.8z"/>
					<path class="st0" d="M788.4,233.6l-58.5-92v92h-31.6V88.4h35.8l58.5,92.2V88.4h31.6v145.2H788.4z"/>
					<path class="st0" d="M874.9,233.6h-32.9V88.4h32.9V233.6z"/>
					<path class="st0" d="M892.5,233.6V88.4h106.2v29.7h-73.3v27.3h67.8v28.8h-67.8v29.7h73.6v29.7H892.5z"/>
					<path class="st0" d="M1013.6,233.6V88.4h32.9v115.1h67.4v30.1H1013.6z"/>
					<path class="st0" d="M1170.7,233.6V88.4h32.8v115.1h67.4v30.1H1170.7z"/>
					<path class="st0" d="M1385.6,233.6l-8.3-25h-57l-8.3,25h-33.7l51.3-145.2h40.3l51,145.2H1385.6z M1367.6,179.5l-18.9-56.8
						l-18.9,56.8H1367.6z"/>
					<path class="st0" d="M1431.2,233.6V88.4h59.8c15.4,0,27.1,3.7,35,11.1s11.9,16.9,11.9,28.3c0,13.4-6.1,23.3-18.2,29.5
						c18.7,5.6,28,17.2,28,34.8c0,12.4-4.4,22.5-13.1,30.1s-21.4,11.5-38,11.4H1431.2z M1488.6,116.6H1464v29.7h24.6
						c5.5,0,9.7-1.4,12.6-4.1c2.9-2.9,4.5-6.8,4.3-10.9c0.2-4-1.4-7.9-4.3-10.6C1498.3,117.9,1494.1,116.6,1488.6,116.6
						L1488.6,116.6z M1494.6,174H1464v31.4h30.7c6.2,0,11.1-1.4,14.6-4.2c3.4-2.6,5.4-6.7,5.3-11c0.1-4.5-1.8-8.8-5.3-11.7
						C1505.9,175.5,1500.9,174,1494.6,174L1494.6,174z"/>
					<path class="st0" d="M1593.8,184.2v49.4h-32.9V88.4h61.9c15.3,0,27.4,4.5,36.5,13.3s13.6,20.6,13.6,35c0.2,11-3.6,21.6-10.7,30
						c-7.1,8.6-16.8,14-28.9,16.4l46.2,50.5h-42.8L1593.8,184.2z M1618,118.5h-24.2v38.8h23.1c7.1,0,12.7-1.8,16.8-5.4
						c4-3.5,6.3-8.6,6.2-13.9c0-5.8-1.9-10.5-5.6-14.1C1630.5,120.3,1625.1,118.5,1618,118.5z"/>
					<path class="st0" d="M1790.9,233.6l-8.3-25h-57l-8.3,25h-33.7L1735,88.4h40.3l51.1,145.2H1790.9z M1772.9,179.5l-18.9-56.8
						l-18.9,56.8H1772.9z"/>
					<path class="st0" d="M1836.5,233.6V88.4h59.3c21.9,0,39.7,6.9,53.4,20.6c13.7,13.7,20.6,30.8,20.6,51.3
						c0,20.8-7.1,38.2-21.2,52.3c-14.1,14.1-32.3,21.1-54.5,21.1L1836.5,233.6z M1894.2,118.5h-24.8v85h25.9
						c11.9,0,21.8-4.1,29.7-12.2c7.9-8.1,11.9-18.3,11.9-30.6c0-12.1-4-22.2-12.1-30.2C1916.6,122.4,1906.5,118.5,1894.2,118.5z"/>
					<path class="st0" d="M2054.8,233.3c-20.5,0-37.9-7-52.3-20.9c-14.4-13.9-21.6-31.1-21.6-51.6c0-20.6,7.2-37.9,21.6-51.8
						c14.4-13.9,31.8-20.9,52.3-20.9c20.9,0,38.5,6.9,52.6,20.8s21.3,31.1,21.3,51.7c0,20.8-7.1,38.1-21.3,51.9
						C2093.2,226.4,2075.7,233.3,2054.8,233.3z M2025.1,191.6c8,8.3,17.9,12.4,29.7,12.4c11.8,0,21.7-4.1,29.7-12.4
						c8-8.3,12-18.6,12-30.9c0-12.1-4-22.3-12-30.6c-8-8.3-17.9-12.5-29.7-12.5c-11.8,0-21.7,4.2-29.7,12.5c-8,8.3-12,18.6-12,30.8
						C2013.1,173.1,2017.1,183.3,2025.1,191.6z"/>
					<path class="st0" d="M2174,184.2v49.4h-32.9V88.4h61.9c15.3,0,27.4,4.5,36.5,13.3s13.6,20.6,13.6,35c0.2,11-3.6,21.6-10.7,30
						c-7.1,8.6-16.8,14-28.9,16.4l46.2,50.5h-42.8L2174,184.2z M2198.2,118.5H2174v38.8h23.1c7.1,0,12.7-1.8,16.8-5.4
						c4-3.5,6.3-8.6,6.1-13.9c0-5.8-1.9-10.5-5.6-14.1C2210.6,120.3,2205.2,118.5,2198.2,118.5L2198.2,118.5z"/>
					<g id="_0_icon">
						<path class="st0" d="M322.3,0v174.4C304.2,136.5,279.7,102,250,72.3C220.3,42.6,185.8,18.1,147.9,0H322.3z"/>
						<path class="st0" d="M175,322.3H0v-175C94.4,152.6,169.8,227.9,175,322.3z"/>
						<path class="st1" d="M0,0.2C175.3,5.9,316.4,147,322.1,322.3H210.9C205.3,208.4,113.9,117,0,111.4V0.2z"/>
					</g>
				</g>
			</g>
		</g>
	</g>
</g>
</svg>
