<svg xmlns="http://www.w3.org/2000/svg" viewBox="0 0 222.29 219.61"><defs><style>.cls-1{fill:#828282;}</style></defs><g id="Layer_2" data-name="Layer 2"><g id="Final_Group" data-name="Final Group"><path class="cls-1" d="M183.46,218.2c-10.28.68-20.59-.64-30.86.68a6.82,6.82,0,0,1-7-3.8,17.43,17.43,0,0,1-1.91-5.06c-2.53-13.1-7.11-25.63-11-38.34-3.49-11.47-10.11-21.53-16.81-31.39-3.74-5.49-7.35-11.08-11.84-16.08a64.48,64.48,0,0,0-11.65-10.5,115.18,115.18,0,0,1-14-10.62c-4.31-4-9.68-6.5-15.1-8.8s-10.86-4.43-16-7.18c-9.1-4.86-18.9-6.88-28.95-8.2-3.61-.47-7.22-.86-10.79-1.52C3.27,76.61.83,74,1.36,69.82,2,64.88,1,60.17.54,55.37c-1.2-12.9,0-25.8,0-38.7,0-2,0-4,0-6.05.13-6.5,3.29-9.56,9.78-9.56,9.17,0,18.07,1.83,26.86,4.13,13.08,3.42,26.29,6.29,39.35,9.74,17.93,4.75,34.56,12.31,48.4,25.13,2.8,2.59,6.14,4.59,9.15,7,15.44,12.26,28.46,26.8,40.3,42.5a272.64,272.64,0,0,1,17.71,26c5.69,9.66,9.75,19.91,13.45,30.37,3.63,10.24,8.53,20.07,10.3,30.93s3.78,21.48,3.92,32.42c.09,6.79-2.18,9.17-9,9.26C201.64,218.6,192.56,217.61,183.46,218.2Z"/><path class="cls-1" d="M21.47,218.13c-3.43,0-6.86,0-10.29,0-5.95.06-10.69-3.67-9.64-10.22.6-3.68-.6-7.61-.59-11.43,0-12.89,0-25.8.47-38.68.45-11.72-.28-23.37-.75-35a123.11,123.11,0,0,1,.11-13.31c.46-7,4.77-10.33,11.47-8.49,4.52,1.24,9.09.31,13.7,1.56a82.71,82.71,0,0,1,18.24,7.77c8,4.36,15.61,9.25,23.68,13.41,6.22,3.2,10.45,8.81,15.63,13.26a95.94,95.94,0,0,1,9.16,9.63c13.16,14.92,20.28,32.71,24.6,51.83.58,2.55,1.36,5.07,1.88,7.64,1.13,5.68-.58,8.77-6,10.82-3.81,1.42-7.83,1.73-11.86,2.19-7.07.81-14.09-.08-21.13-.16-8.49-.1-17,.46-25.42.65a128.7,128.7,0,0,1-21.13-1c-4-.56-8-.1-12.08-.1Z"/><path class="cls-1" d="M222.26,102.05a68.83,68.83,0,0,1-.78,11.47c-.25,2-.71,3.7-3,3.85a4,4,0,0,1-4.48-3.25c-1.92-8.89-6.94-16.26-11.74-23.69a157.47,157.47,0,0,0-10.44-14.1c-7-8.58-12.9-18-20.26-26.4a148.55,148.55,0,0,0-51-38.06c-3.49-1.57-7-3.13-10.47-4.72-1.9-.87-3.85-2-3.28-4.41s2.86-2.57,4.9-2.67c4.41-.2,8.82.33,13.22.49,7.47.25,14.93.25,22.35-.17,15.16-.86,30.27-.12,45.4.46,6,.24,12.09-.27,18.14-.29,7.36,0,11,3.62,10.25,10.84C218.94,32,219.68,52.47,220.93,73,221.52,82.69,221.75,92.38,222.26,102.05Z"/></g></g></svg>