<svg xmlns="http://www.w3.org/2000/svg" viewBox="0 0 699.74 219.61"><defs><style>.cls-1{fill:#ff8b00;}.cls-2{fill:#333;}</style></defs><g id="Layer_2" data-name="Layer 2"><g id="Final_Group" data-name="Final Group"><path class="cls-1" d="M183.46,218.2c-10.28.68-20.59-.64-30.86.68a6.82,6.82,0,0,1-7-3.8,17.43,17.43,0,0,1-1.91-5.06c-2.53-13.1-7.11-25.63-11-38.34-3.49-11.47-10.11-21.53-16.81-31.39-3.74-5.49-7.35-11.08-11.84-16.08a64.48,64.48,0,0,0-11.65-10.5,115.18,115.18,0,0,1-14-10.62c-4.31-4-9.68-6.5-15.1-8.8s-10.86-4.43-16-7.18c-9.1-4.86-18.9-6.88-28.95-8.2-3.61-.47-7.22-.86-10.79-1.52C3.27,76.61.83,74,1.36,69.82,2,64.88,1,60.17.54,55.37c-1.2-12.9,0-25.8,0-38.7,0-2,0-4,0-6.05.13-6.5,3.29-9.56,9.78-9.56,9.17,0,18.07,1.83,26.86,4.13,13.08,3.42,26.29,6.29,39.35,9.74,17.93,4.75,34.56,12.31,48.4,25.13,2.8,2.59,6.14,4.59,9.15,7,15.44,12.26,28.46,26.8,40.3,42.5a272.64,272.64,0,0,1,17.71,26c5.69,9.66,9.75,19.91,13.45,30.37,3.63,10.24,8.53,20.07,10.3,30.93s3.78,21.48,3.92,32.42c.09,6.79-2.18,9.17-9,9.26C201.64,218.6,192.56,217.61,183.46,218.2Z"/><path class="cls-2" d="M21.47,218.13c-3.43,0-6.86,0-10.29,0-5.95.06-10.69-3.67-9.64-10.22.6-3.68-.6-7.61-.59-11.43,0-12.89,0-25.8.47-38.68.45-11.72-.28-23.37-.75-35a123.11,123.11,0,0,1,.11-13.31c.46-7,4.77-10.33,11.47-8.49,4.52,1.24,9.09.31,13.7,1.56a82.71,82.71,0,0,1,18.24,7.77c8,4.36,15.61,9.25,23.68,13.41,6.22,3.2,10.45,8.81,15.63,13.26a95.94,95.94,0,0,1,9.16,9.63c13.16,14.92,20.28,32.71,24.6,51.83.58,2.55,1.36,5.07,1.88,7.64,1.13,5.68-.58,8.77-6,10.82-3.81,1.42-7.83,1.73-11.86,2.19-7.07.81-14.09-.08-21.13-.16-8.49-.1-17,.46-25.42.65a128.7,128.7,0,0,1-21.13-1c-4-.56-8-.1-12.08-.1Z"/><path class="cls-2" d="M222.26,102.05a68.83,68.83,0,0,1-.78,11.47c-.25,2-.71,3.7-3,3.85a4,4,0,0,1-4.48-3.25c-1.92-8.89-6.94-16.26-11.74-23.69a157.47,157.47,0,0,0-10.44-14.1c-7-8.58-12.9-18-20.26-26.4a148.55,148.55,0,0,0-51-38.06c-3.49-1.57-7-3.13-10.47-4.72-1.9-.87-3.85-2-3.28-4.41s2.86-2.57,4.9-2.67c4.41-.2,8.82.33,13.22.49,7.47.25,14.93.25,22.35-.17,15.16-.86,30.27-.12,45.4.46,6,.24,12.09-.27,18.14-.29,7.36,0,11,3.62,10.25,10.84C218.94,32,219.68,52.47,220.93,73,221.52,82.69,221.75,92.38,222.26,102.05Z"/><path class="cls-2" d="M350.81,65.86c-10.81-10.76-25.28-16.21-43-16.21H271.26v117h36.56c17.71,0,32.18-5.43,43-16.13s16.3-24.95,16.3-42.37S361.62,76.61,350.81,65.86Zm-43,82.89H289.77V67.54h18.05c12.53,0,22.52,3.62,29.67,10.77s10.77,17.19,10.77,29.83-3.62,22.81-10.77,29.91S320.36,148.75,307.82,148.75Z"/><path class="cls-2" d="M439.67,91.92c-6.56-6.06-15.56-9.13-26.76-9.13-14.41,0-25.48,5.38-32.89,16l-1.2,1.72L395,110.7l1.09-1.58c4.38-6.32,10.14-9.39,17.61-9.39a18.45,18.45,0,0,1,12.72,4.79,14.48,14.48,0,0,1,5.32,11.36V116c-5.35-2.33-11.82-3.5-19.3-3.5-10.51,0-19.08,2.53-25.46,7.52-6.53,5.11-9.84,12.06-9.84,20.67a26.21,26.21,0,0,0,9.28,20.44c6.08,5.35,13.72,8.07,22.7,8.07A29,29,0,0,0,431.74,159v7.69h17.89V117C449.63,106.46,446.28,98,439.67,91.92Zm-7.95,40.56c-.24,5.16-2.39,9.58-6.53,13.5a21,21,0,0,1-15,6.24,15.63,15.63,0,0,1-10.05-3.36,9.61,9.61,0,0,1-4.05-7.89c0-3.56,1.66-6.49,5.09-8.95s8.15-3.89,13.58-3.89C421.94,128.13,427.62,129.6,431.72,132.48Z"/><path class="cls-2" d="M538.31,116v50.61H519.79V117C519.5,105.44,514.07,100,502.7,100a16.1,16.1,0,0,0-13,6.31,23.28,23.28,0,0,0-5.38,15.52v44.77H465.82V85.31h17.89v7.55a30.44,30.44,0,0,1,7.84-6,31.3,31.3,0,0,1,15.25-4c10,0,17.84,2.94,23.31,8.75S538.31,105.56,538.31,116Z"/><path class="cls-2" d="M577.92,60.65A12.24,12.24,0,1,1,574.33,52,11.87,11.87,0,0,1,577.92,60.65Z"/><rect class="cls-2" x="556.4" y="85.31" width="18.52" height="81.33"/><path class="cls-2" d="M657.47,94.57c-7.14-7.82-16.85-11.78-28.85-11.78-11.69,0-21.42,4.17-28.94,12.41S588.43,113.73,588.43,126s3.9,22.75,11.59,30.88,17.66,12.3,29.55,12.3a42.1,42.1,0,0,0,21.93-5.8,40.79,40.79,0,0,0,15.18-16.09l1-1.83-16.49-8-.93,1.63c-4.92,8.66-11.47,12.88-20,12.88a22.11,22.11,0,0,1-16-6.39,22.45,22.45,0,0,1-6.84-14.86h60.45l.34-3.38v-.2C668.17,113.27,664.57,102.33,657.47,94.57ZM628.3,100c6.09,0,11,1.61,14.53,4.78a17,17,0,0,1,5.61,9.84H609a21.37,21.37,0,0,1,6.5-10A18.92,18.92,0,0,1,628.3,100Z"/><rect class="cls-2" x="681.22" y="49.65" width="18.52" height="116.99"/></g></g></svg>